ISO-10303-21;
HEADER;
FILE_DESCRIPTION(('Open CASCADE Model'),'2;1');
FILE_NAME('Open CASCADE Shape Model','2026-08-02T13:05:45',('Author'),(
    'Open CASCADE'),'Open CASCADE STEP processor 7.9','Open CASCADE 7.9'
  ,'Unknown');
FILE_SCHEMA(('AUTOMOTIVE_DESIGN { 1 0 10303 214 1 1 1 1 }'));
ENDSEC;
DATA;
#1 = APPLICATION_PROTOCOL_DEFINITION('international standard',
  'automotive_design',2000,#2);
#2 = APPLICATION_CONTEXT(
  'core data for automotive mechanical design processes');
#3 = SHAPE_DEFINITION_REPRESENTATION(#4,#10);
#4 = PRODUCT_DEFINITION_SHAPE('','',#5);
#5 = PRODUCT_DEFINITION('design','',#6,#9);
#6 = PRODUCT_DEFINITION_FORMATION('','',#7);
#7 = PRODUCT('Open CASCADE STEP translator 7.9 8',
  'Open CASCADE STEP translator 7.9 8','',(#8));
#8 = PRODUCT_CONTEXT('',#2,'mechanical');
#9 = PRODUCT_DEFINITION_CONTEXT('part definition',#2,'design');
#10 = ADVANCED_BREP_SHAPE_REPRESENTATION('',(#11,#15),#1165);
#11 = AXIS2_PLACEMENT_3D('',#12,#13,#14);
#12 = CARTESIAN_POINT('',(0.,0.,0.));
#13 = DIRECTION('',(0.,0.,1.));
#14 = DIRECTION('',(1.,0.,-0.));
#15 = MANIFOLD_SOLID_BREP('',#16);
#16 = CLOSED_SHELL('',(#17,#222,#855,#883,#913,#942,#970,#998,#1026,
    #1083,#1158));
#17 = ADVANCED_FACE('',(#18),#32,.F.);
#18 = FACE_BOUND('',#19,.F.);
#19 = EDGE_LOOP('',(#20,#50,#77,#78,#139,#168));
#20 = ORIENTED_EDGE('',*,*,#21,.F.);
#21 = EDGE_CURVE('',#22,#24,#26,.T.);
#22 = VERTEX_POINT('',#23);
#23 = CARTESIAN_POINT('',(12.825,0.,3.48));
#24 = VERTEX_POINT('',#25);
#25 = CARTESIAN_POINT('',(12.825,0.,3.62));
#26 = SEAM_CURVE('',#27,(#31,#43),.PCURVE_S1.);
#27 = LINE('',#28,#29);
#28 = CARTESIAN_POINT('',(12.825,0.,3.48));
#29 = VECTOR('',#30,1.);
#30 = DIRECTION('',(0.,0.,1.));
#31 = PCURVE('',#32,#37);
#32 = CYLINDRICAL_SURFACE('',#33,12.825);
#33 = AXIS2_PLACEMENT_3D('',#34,#35,#36);
#34 = CARTESIAN_POINT('',(0.,0.,3.48));
#35 = DIRECTION('',(0.,0.,1.));
#36 = DIRECTION('',(1.,0.,-0.));
#37 = DEFINITIONAL_REPRESENTATION('',(#38),#42);
#38 = LINE('',#39,#40);
#39 = CARTESIAN_POINT('',(0.,0.));
#40 = VECTOR('',#41,1.);
#41 = DIRECTION('',(0.,1.));
#42 = ( GEOMETRIC_REPRESENTATION_CONTEXT(2) 
PARAMETRIC_REPRESENTATION_CONTEXT() REPRESENTATION_CONTEXT('2D SPACE',''
  ) );
#43 = PCURVE('',#32,#44);
#44 = DEFINITIONAL_REPRESENTATION('',(#45),#49);
#45 = LINE('',#46,#47);
#46 = CARTESIAN_POINT('',(6.28318530718,0.));
#47 = VECTOR('',#48,1.);
#48 = DIRECTION('',(0.,1.));
#49 = ( GEOMETRIC_REPRESENTATION_CONTEXT(2) 
PARAMETRIC_REPRESENTATION_CONTEXT() REPRESENTATION_CONTEXT('2D SPACE',''
  ) );
#50 = ORIENTED_EDGE('',*,*,#51,.T.);
#51 = EDGE_CURVE('',#22,#22,#52,.T.);
#52 = SURFACE_CURVE('',#53,(#58,#65),.PCURVE_S1.);
#53 = CIRCLE('',#54,12.825);
#54 = AXIS2_PLACEMENT_3D('',#55,#56,#57);
#55 = CARTESIAN_POINT('',(0.,0.,3.48));
#56 = DIRECTION('',(0.,0.,1.));
#57 = DIRECTION('',(1.,0.,-0.));
#58 = PCURVE('',#32,#59);
#59 = DEFINITIONAL_REPRESENTATION('',(#60),#64);
#60 = LINE('',#61,#62);
#61 = CARTESIAN_POINT('',(0.,0.));
#62 = VECTOR('',#63,1.);
#63 = DIRECTION('',(1.,0.));
#64 = ( GEOMETRIC_REPRESENTATION_CONTEXT(2) 
PARAMETRIC_REPRESENTATION_CONTEXT() REPRESENTATION_CONTEXT('2D SPACE',''
  ) );
#65 = PCURVE('',#66,#71);
#66 = PLANE('',#67);
#67 = AXIS2_PLACEMENT_3D('',#68,#69,#70);
#68 = CARTESIAN_POINT('',(0.,0.,3.48));
#69 = DIRECTION('',(0.,0.,1.));
#70 = DIRECTION('',(1.,0.,-0.));
#71 = DEFINITIONAL_REPRESENTATION('',(#72),#76);
#72 = CIRCLE('',#73,12.825);
#73 = AXIS2_PLACEMENT_2D('',#74,#75);
#74 = CARTESIAN_POINT('',(0.,0.));
#75 = DIRECTION('',(1.,0.));
#76 = ( GEOMETRIC_REPRESENTATION_CONTEXT(2) 
PARAMETRIC_REPRESENTATION_CONTEXT() REPRESENTATION_CONTEXT('2D SPACE',''
  ) );
#77 = ORIENTED_EDGE('',*,*,#21,.T.);
#78 = ORIENTED_EDGE('',*,*,#79,.F.);
#79 = EDGE_CURVE('',#80,#24,#82,.T.);
#80 = VERTEX_POINT('',#81);
#81 = CARTESIAN_POINT('',(12.78683404913,-0.988685996664,4.47));
#82 = SURFACE_CURVE('',#83,(#98,#116),.PCURVE_S1.);
#83 = B_SPLINE_CURVE_WITH_KNOTS('',7,(#84,#85,#86,#87,#88,#89,#90,#91,
    #92,#93,#94,#95,#96,#97),.UNSPECIFIED.,.F.,.F.,(8,6,8),(0.,
    0.566894861308,1.),.UNSPECIFIED.);
#84 = CARTESIAN_POINT('',(12.786834042092,-0.988686087694,4.4700006));
#85 = CARTESIAN_POINT('',(12.788037466004,-0.973122015293,4.367413643978
    ));
#86 = CARTESIAN_POINT('',(12.790187790069,-0.945023777096,4.265948805344
    ));
#87 = CARTESIAN_POINT('',(12.793231054279,-0.904257142242,4.166962259039
    ));
#88 = CARTESIAN_POINT('',(12.797034979072,-0.850673015856,4.071960824675
    ));
#89 = CARTESIAN_POINT('',(12.80138057609,-0.784180947791,3.982675171019)
  );
#90 = CARTESIAN_POINT('',(12.805948866838,-0.704815687636,3.901136631893
    ));
#91 = CARTESIAN_POINT('',(12.813705755244,-0.542689268337,3.775378490243
    ));
#92 = CARTESIAN_POINT('',(12.816986030915,-0.464716597818,3.726556606873
    ));
#93 = CARTESIAN_POINT('',(12.81996981706,-0.379827133871,3.685290935251)
  );
#94 = CARTESIAN_POINT('',(12.822418222794,-0.289280019672,3.65310502709)
  );
#95 = CARTESIAN_POINT('',(12.824133655725,-0.194627179748,3.631113214981
    ));
#96 = CARTESIAN_POINT('',(12.825,-9.759843460046E-02,3.62));
#97 = CARTESIAN_POINT('',(12.825,-7.771561172376E-16,3.62));
#98 = PCURVE('',#32,#99);
#99 = DEFINITIONAL_REPRESENTATION('',(#100),#115);
#100 = B_SPLINE_CURVE_WITH_KNOTS('',7,(#101,#102,#103,#104,#105,#106,
    #107,#108,#109,#110,#111,#112,#113,#114),.UNSPECIFIED.,.F.,.F.,(8,6,
    8),(0.,0.566894861308,1.),.UNSPECIFIED.);
#101 = CARTESIAN_POINT('',(6.206018211561,0.9900006));
#102 = CARTESIAN_POINT('',(6.207235406713,0.887413643978));
#103 = CARTESIAN_POINT('',(6.20943270838,0.785948805344));
#104 = CARTESIAN_POINT('',(6.212620228264,0.686962259039));
#105 = CARTESIAN_POINT('',(6.216808793584,0.591960824675));
#106 = CARTESIAN_POINT('',(6.222004234569,0.502675171019));
#107 = CARTESIAN_POINT('',(6.228202510768,0.421136631893));
#108 = CARTESIAN_POINT('',(6.240858407547,0.295378490243));
#109 = CARTESIAN_POINT('',(6.246943425854,0.246556606873));
#110 = CARTESIAN_POINT('',(6.253566308516,0.205290935251));
#111 = CARTESIAN_POINT('',(6.260628644026,0.17310502709));
#112 = CARTESIAN_POINT('',(6.268009697567,0.151113214981));
#113 = CARTESIAN_POINT('',(6.275575292786,0.14));
#114 = CARTESIAN_POINT('',(6.28318530718,0.14));
#115 = ( GEOMETRIC_REPRESENTATION_CONTEXT(2) 
PARAMETRIC_REPRESENTATION_CONTEXT() REPRESENTATION_CONTEXT('2D SPACE',''
  ) );
#116 = PCURVE('',#117,#122);
#117 = CYLINDRICAL_SURFACE('',#118,1.);
#118 = AXIS2_PLACEMENT_3D('',#119,#120,#121);
#119 = CARTESIAN_POINT('',(0.,0.,4.62));
#120 = DIRECTION('',(-1.,-0.,-0.));
#121 = DIRECTION('',(0.,1.,0.));
#122 = DEFINITIONAL_REPRESENTATION('',(#123),#138);
#123 = B_SPLINE_CURVE_WITH_KNOTS('',7,(#124,#125,#126,#127,#128,#129,
    #130,#131,#132,#133,#134,#135,#136,#137),.UNSPECIFIED.,.F.,.F.,(8,6,
    8),(0.,0.566894861308,1.),.UNSPECIFIED.);
#124 = CARTESIAN_POINT('',(-3.2921603195,-12.78683404209));
#125 = CARTESIAN_POINT('',(-3.39592121722,-12.788037466));
#126 = CARTESIAN_POINT('',(-3.500452701467,-12.79018779006));
#127 = CARTESIAN_POINT('',(-3.606259466606,-12.79323105427));
#128 = CARTESIAN_POINT('',(-3.713818287274,-12.79703497907));
#129 = CARTESIAN_POINT('',(-3.823650767575,-12.80138057609));
#130 = CARTESIAN_POINT('',(-3.936337303669,-12.80594886683));
#131 = CARTESIAN_POINT('',(-4.141520358589,-12.81370575524));
#132 = CARTESIAN_POINT('',(-4.23305374616,-12.81698603091));
#133 = CARTESIAN_POINT('',(-4.326569055992,-12.81996981706));
#134 = CARTESIAN_POINT('',(-4.421589585966,-12.82241822279));
#135 = CARTESIAN_POINT('',(-4.517762098646,-12.82413365572));
#136 = CARTESIAN_POINT('',(-4.614790545784,-12.825));
#137 = CARTESIAN_POINT('',(-4.712388980385,-12.825));
#138 = ( GEOMETRIC_REPRESENTATION_CONTEXT(2) 
PARAMETRIC_REPRESENTATION_CONTEXT() REPRESENTATION_CONTEXT('2D SPACE',''
  ) );
#139 = ORIENTED_EDGE('',*,*,#140,.F.);
#140 = EDGE_CURVE('',#141,#80,#143,.T.);
#141 = VERTEX_POINT('',#142);
#142 = CARTESIAN_POINT('',(12.78683404913,0.988685996664,4.47));
#143 = SURFACE_CURVE('',#144,(#149,#156),.PCURVE_S1.);
#144 = CIRCLE('',#145,12.825);
#145 = AXIS2_PLACEMENT_3D('',#146,#147,#148);
#146 = CARTESIAN_POINT('',(0.,0.,4.47));
#147 = DIRECTION('',(0.,0.,1.));
#148 = DIRECTION('',(1.,0.,-0.));
#149 = PCURVE('',#32,#150);
#150 = DEFINITIONAL_REPRESENTATION('',(#151),#155);
#151 = LINE('',#152,#153);
#152 = CARTESIAN_POINT('',(0.,0.99));
#153 = VECTOR('',#154,1.);
#154 = DIRECTION('',(1.,0.));
#155 = ( GEOMETRIC_REPRESENTATION_CONTEXT(2) 
PARAMETRIC_REPRESENTATION_CONTEXT() REPRESENTATION_CONTEXT('2D SPACE',''
  ) );
#156 = PCURVE('',#157,#162);
#157 = PLANE('',#158);
#158 = AXIS2_PLACEMENT_3D('',#159,#160,#161);
#159 = CARTESIAN_POINT('',(0.,0.,4.47));
#160 = DIRECTION('',(0.,0.,1.));
#161 = DIRECTION('',(1.,0.,-0.));
#162 = DEFINITIONAL_REPRESENTATION('',(#163),#167);
#163 = CIRCLE('',#164,12.825);
#164 = AXIS2_PLACEMENT_2D('',#165,#166);
#165 = CARTESIAN_POINT('',(0.,0.));
#166 = DIRECTION('',(1.,-0.));
#167 = ( GEOMETRIC_REPRESENTATION_CONTEXT(2) 
PARAMETRIC_REPRESENTATION_CONTEXT() REPRESENTATION_CONTEXT('2D SPACE',''
  ) );
#168 = ORIENTED_EDGE('',*,*,#169,.F.);
#169 = EDGE_CURVE('',#24,#141,#170,.T.);
#170 = SURFACE_CURVE('',#171,(#186,#204),.PCURVE_S1.);
#171 = B_SPLINE_CURVE_WITH_KNOTS('',7,(#172,#173,#174,#175,#176,#177,
    #178,#179,#180,#181,#182,#183,#184,#185),.UNSPECIFIED.,.F.,.F.,(8,6,
    8),(0.,0.422342261482,1.),.UNSPECIFIED.);
#172 = CARTESIAN_POINT('',(12.825,7.963299097641E-16,3.62));
#173 = CARTESIAN_POINT('',(12.825,9.517603387555E-02,3.62));
#174 = CARTESIAN_POINT('',(12.824176125185,0.189797580765,3.630568396441
    ));
#175 = CARTESIAN_POINT('',(12.822544806443,0.282191810113,3.651482561202
    ));
#176 = CARTESIAN_POINT('',(12.820211640624,0.370755148884,3.682114423665
    ));
#177 = CARTESIAN_POINT('',(12.817356243936,0.45404259374,3.721447533692)
  );
#178 = CARTESIAN_POINT('',(12.814197261929,0.53086869685,3.768094576795)
  );
#179 = CARTESIAN_POINT('',(12.806479052886,0.695549181895,3.891740182457
    ));
#180 = CARTESIAN_POINT('',(12.801802594605,0.777705938375,3.974070146167
    ));
#181 = CARTESIAN_POINT('',(12.797330743055,0.846502870464,4.064624811882
    ));
#182 = CARTESIAN_POINT('',(12.793408107678,0.901885041772,4.16123209466)
  );
#183 = CARTESIAN_POINT('',(12.790270764653,0.943939479804,4.262042562395
    ));
#184 = CARTESIAN_POINT('',(12.788060531287,0.972823708335,4.365447423187
    ));
#185 = CARTESIAN_POINT('',(12.786834042092,0.988686087694,4.4700006));
#186 = PCURVE('',#32,#187);
#187 = DEFINITIONAL_REPRESENTATION('',(#188),#203);
#188 = B_SPLINE_CURVE_WITH_KNOTS('',7,(#189,#190,#191,#192,#193,#194,
    #195,#196,#197,#198,#199,#200,#201,#202),.UNSPECIFIED.,.F.,.F.,(8,6,
    8),(0.,0.422342261482,1.),.UNSPECIFIED.);
#189 = CARTESIAN_POINT('',(0.,0.14));
#190 = CARTESIAN_POINT('',(7.421133245656E-03,0.14));
#191 = CARTESIAN_POINT('',(1.479903267515E-02,0.150568396441));
#192 = CARTESIAN_POINT('',(2.200392435113E-02,0.171482561202));
#193 = CARTESIAN_POINT('',(2.89114241063E-02,0.202114423665));
#194 = CARTESIAN_POINT('',(3.540913285303E-02,0.241447533692));
#195 = CARTESIAN_POINT('',(4.140443651165E-02,0.288094576795));
#196 = CARTESIAN_POINT('',(5.425911514703E-02,0.411740182457));
#197 = CARTESIAN_POINT('',(6.067514652994E-02,0.494070146167));
#198 = CARTESIAN_POINT('',(6.605054288857E-02,0.584624811882));
#199 = CARTESIAN_POINT('',(7.037960608311E-02,0.68123209466));
#200 = CARTESIAN_POINT('',(7.366780597162E-02,0.782042562395));
#201 = CARTESIAN_POINT('',(7.592657123947E-02,0.885447423187));
#202 = CARTESIAN_POINT('',(7.716709561844E-02,0.9900006));
#203 = ( GEOMETRIC_REPRESENTATION_CONTEXT(2) 
PARAMETRIC_REPRESENTATION_CONTEXT() REPRESENTATION_CONTEXT('2D SPACE',''
  ) );
#204 = PCURVE('',#117,#205);
#205 = DEFINITIONAL_REPRESENTATION('',(#206),#221);
#206 = B_SPLINE_CURVE_WITH_KNOTS('',7,(#207,#208,#209,#210,#211,#212,
    #213,#214,#215,#216,#217,#218,#219,#220),.UNSPECIFIED.,.F.,.F.,(8,6,
    8),(0.,0.422342261482,1.),.UNSPECIFIED.);
#207 = CARTESIAN_POINT('',(-4.712388980385,-12.825));
#208 = CARTESIAN_POINT('',(-4.80756501426,-12.825));
#209 = CARTESIAN_POINT('',(-4.902186277898,-12.82417612518));
#210 = CARTESIAN_POINT('',(-4.995989759784,-12.82254480644));
#211 = CARTESIAN_POINT('',(-5.088701956634,-12.82021164062));
#212 = CARTESIAN_POINT('',(-5.17999759986,-12.81735624393));
#213 = CARTESIAN_POINT('',(-5.269441780756,-12.81419726192));
#214 = CARTESIAN_POINT('',(-5.47537356061,-12.80647905288));
#215 = CARTESIAN_POINT('',(-5.590505789607,-12.8018025946));
#216 = CARTESIAN_POINT('',(-5.702641061146,-12.79733074305));
#217 = CARTESIAN_POINT('',(-5.812390318343,-12.79340810767));
#218 = CARTESIAN_POINT('',(-5.920300592585,-12.79027076465));
#219 = CARTESIAN_POINT('',(-6.026868022543,-12.78806053128));
#220 = CARTESIAN_POINT('',(-6.132617641269,-12.78683404209));
#221 = ( GEOMETRIC_REPRESENTATION_CONTEXT(2) 
PARAMETRIC_REPRESENTATION_CONTEXT() REPRESENTATION_CONTEXT('2D SPACE',''
  ) );
#222 = ADVANCED_FACE('',(#223),#117,.F.);
#223 = FACE_BOUND('',#224,.T.);
#224 = EDGE_LOOP('',(#225,#264,#287,#348,#440,#479,#480,#509,#528,#529,
    #530,#551,#595,#621,#655,#681,#736,#786,#807,#836));
#225 = ORIENTED_EDGE('',*,*,#226,.F.);
#226 = EDGE_CURVE('',#227,#229,#231,.T.);
#227 = VERTEX_POINT('',#228);
#228 = CARTESIAN_POINT('',(13.162066707018,1.,4.62));
#229 = VERTEX_POINT('',#230);
#230 = CARTESIAN_POINT('',(13.166719409177,0.93674969976,4.97));
#231 = SURFACE_CURVE('',#232,(#239,#249),.PCURVE_S1.);
#232 = B_SPLINE_CURVE_WITH_KNOTS('',5,(#233,#234,#235,#236,#237,#238),
  .UNSPECIFIED.,.F.,.F.,(6,6),(0.,1.),.PIECEWISE_BEZIER_KNOTS.);
#233 = CARTESIAN_POINT('',(13.162066707018,1.,4.62));
#234 = CARTESIAN_POINT('',(13.162066707018,1.,4.691024147375));
#235 = CARTESIAN_POINT('',(13.16254577141,0.993694731296,4.762046845324)
  );
#236 = CARTESIAN_POINT('',(13.16350388822,0.981082977879,4.832574833765)
  );
#237 = CARTESIAN_POINT('',(13.16491414956,0.962123983368,4.902087696811)
  );
#238 = CARTESIAN_POINT('',(13.166719425126,0.93674947558,4.9700006));
#239 = PCURVE('',#117,#240);
#240 = DEFINITIONAL_REPRESENTATION('',(#241),#248);
#241 = B_SPLINE_CURVE_WITH_KNOTS('',5,(#242,#243,#244,#245,#246,#247),
  .UNSPECIFIED.,.F.,.F.,(6,6),(0.,1.),.PIECEWISE_BEZIER_KNOTS.);
#242 = CARTESIAN_POINT('',(0.,-13.16206670701));
#243 = CARTESIAN_POINT('',(-7.10241473748E-02,-13.16206670701));
#244 = CARTESIAN_POINT('',(-0.142046766929,-13.16254577141));
#245 = CARTESIAN_POINT('',(-0.213321412473,-13.16350388822));
#246 = CARTESIAN_POINT('',(-0.285073274761,-13.16491414956));
#247 = CARTESIAN_POINT('',(-0.357571744158,-13.16671942512));
#248 = ( GEOMETRIC_REPRESENTATION_CONTEXT(2) 
PARAMETRIC_REPRESENTATION_CONTEXT() REPRESENTATION_CONTEXT('2D SPACE',''
  ) );
#249 = PCURVE('',#250,#255);
#250 = CYLINDRICAL_SURFACE('',#251,13.2);
#251 = AXIS2_PLACEMENT_3D('',#252,#253,#254);
#252 = CARTESIAN_POINT('',(0.,0.,4.47));
#253 = DIRECTION('',(0.,0.,1.));
#254 = DIRECTION('',(1.,0.,-0.));
#255 = DEFINITIONAL_REPRESENTATION('',(#256),#263);
#256 = B_SPLINE_CURVE_WITH_KNOTS('',5,(#257,#258,#259,#260,#261,#262),
  .UNSPECIFIED.,.F.,.F.,(6,6),(0.,1.),.PIECEWISE_BEZIER_KNOTS.);
#257 = CARTESIAN_POINT('',(7.583022832651E-02,0.15));
#258 = CARTESIAN_POINT('',(7.583022832651E-02,0.221024147375));
#259 = CARTESIAN_POINT('',(7.535118012068E-02,0.292046845324));
#260 = CARTESIAN_POINT('',(7.43929892321E-02,0.362574833765));
#261 = CARTESIAN_POINT('',(7.295274069346E-02,0.432087696811));
#262 = CARTESIAN_POINT('',(7.102557060887E-02,0.5000006));
#263 = ( GEOMETRIC_REPRESENTATION_CONTEXT(2) 
PARAMETRIC_REPRESENTATION_CONTEXT() REPRESENTATION_CONTEXT('2D SPACE',''
  ) );
#264 = ORIENTED_EDGE('',*,*,#265,.T.);
#265 = EDGE_CURVE('',#227,#266,#268,.T.);
#266 = VERTEX_POINT('',#267);
#267 = CARTESIAN_POINT('',(14.17978226208,1.,4.62));
#268 = SEAM_CURVE('',#269,(#273,#280),.PCURVE_S1.);
#269 = LINE('',#270,#271);
#270 = CARTESIAN_POINT('',(0.,1.,4.62));
#271 = VECTOR('',#272,1.);
#272 = DIRECTION('',(1.,0.,0.));
#273 = PCURVE('',#117,#274);
#274 = DEFINITIONAL_REPRESENTATION('',(#275),#279);
#275 = LINE('',#276,#277);
#276 = CARTESIAN_POINT('',(-6.28318530718,0.));
#277 = VECTOR('',#278,1.);
#278 = DIRECTION('',(-0.,-1.));
#279 = ( GEOMETRIC_REPRESENTATION_CONTEXT(2) 
PARAMETRIC_REPRESENTATION_CONTEXT() REPRESENTATION_CONTEXT('2D SPACE',''
  ) );
#280 = PCURVE('',#117,#281);
#281 = DEFINITIONAL_REPRESENTATION('',(#282),#286);
#282 = LINE('',#283,#284);
#283 = CARTESIAN_POINT('',(-0.,0.));
#284 = VECTOR('',#285,1.);
#285 = DIRECTION('',(-0.,-1.));
#286 = ( GEOMETRIC_REPRESENTATION_CONTEXT(2) 
PARAMETRIC_REPRESENTATION_CONTEXT() REPRESENTATION_CONTEXT('2D SPACE',''
  ) );
#287 = ORIENTED_EDGE('',*,*,#288,.T.);
#288 = EDGE_CURVE('',#266,#289,#291,.T.);
#289 = VERTEX_POINT('',#290);
#290 = CARTESIAN_POINT('',(14.215,0.,5.62));
#291 = SURFACE_CURVE('',#292,(#307,#325),.PCURVE_S1.);
#292 = B_SPLINE_CURVE_WITH_KNOTS('',7,(#293,#294,#295,#296,#297,#298,
    #299,#300,#301,#302,#303,#304,#305,#306),.UNSPECIFIED.,.F.,.F.,(8,6,
    8),(0.,0.612665855084,1.),.UNSPECIFIED.);
#293 = CARTESIAN_POINT('',(14.17978226208,1.,4.62));
#294 = CARTESIAN_POINT('',(14.17978226208,1.,4.744804013358));
#295 = CARTESIAN_POINT('',(14.181063743526,0.981828150018,4.869799586892
    ));
#296 = CARTESIAN_POINT('',(14.183634251505,0.945382627217,4.99280065515)
  );
#297 = CARTESIAN_POINT('',(14.18736388081,0.890397050142,5.111441712398)
  );
#298 = CARTESIAN_POINT('',(14.19197305033,0.816629180621,5.222956969407)
  );
#299 = CARTESIAN_POINT('',(14.196986987539,0.72397886819,5.323998881584)
  );
#300 = CARTESIAN_POINT('',(14.204811044664,0.542686221284,5.464623873293
    ));
#301 = CARTESIAN_POINT('',(14.20777003215,0.46471442044,5.513444062106)
  );
#302 = CARTESIAN_POINT('',(14.21046165416,0.379828665193,5.554707439814)
  );
#303 = CARTESIAN_POINT('',(14.212670493074,0.289286067048,5.586892369584
    ));
#304 = CARTESIAN_POINT('',(14.214218249747,0.194636109879,5.608885035501
    ));
#305 = CARTESIAN_POINT('',(14.215,9.760612980554E-02,5.62));
#306 = CARTESIAN_POINT('',(14.215,5.971700597435E-16,5.62));
#307 = PCURVE('',#117,#308);
#308 = DEFINITIONAL_REPRESENTATION('',(#309),#324);
#309 = B_SPLINE_CURVE_WITH_KNOTS('',7,(#310,#311,#312,#313,#314,#315,
    #316,#317,#318,#319,#320,#321,#322,#323),.UNSPECIFIED.,.F.,.F.,(8,6,
    8),(0.,0.612665855084,1.),.UNSPECIFIED.);
#310 = CARTESIAN_POINT('',(0.,-14.17978226208));
#311 = CARTESIAN_POINT('',(-0.124804013358,-14.17978226208));
#312 = CARTESIAN_POINT('',(-0.249799197558,-14.18106374352));
#313 = CARTESIAN_POINT('',(-0.375977177536,-14.1836342515));
#314 = CARTESIAN_POINT('',(-0.504183987774,-14.18736388081));
#315 = CARTESIAN_POINT('',(-0.635354341372,-14.19197305033));
#316 = CARTESIAN_POINT('',(-0.770492218273,-14.19698698753));
#317 = CARTESIAN_POINT('',(-0.999931561271,-14.20481104466));
#318 = CARTESIAN_POINT('',(-1.091463230884,-14.20777003215));
#319 = CARTESIAN_POINT('',(-1.184974333305,-14.21046165416));
#320 = CARTESIAN_POINT('',(-1.279990532752,-14.21267049307));
#321 = CARTESIAN_POINT('',(-1.376160515332,-14.21421824974));
#322 = CARTESIAN_POINT('',(-1.473190196989,-14.215));
#323 = CARTESIAN_POINT('',(-1.570796326795,-14.215));
#324 = ( GEOMETRIC_REPRESENTATION_CONTEXT(2) 
PARAMETRIC_REPRESENTATION_CONTEXT() REPRESENTATION_CONTEXT('2D SPACE',''
  ) );
#325 = PCURVE('',#326,#331);
#326 = CYLINDRICAL_SURFACE('',#327,14.215);
#327 = AXIS2_PLACEMENT_3D('',#328,#329,#330);
#328 = CARTESIAN_POINT('',(0.,0.,7.17));
#329 = DIRECTION('',(-0.,-0.,-1.));
#330 = DIRECTION('',(1.,0.,0.));
#331 = DEFINITIONAL_REPRESENTATION('',(#332),#347);
#332 = B_SPLINE_CURVE_WITH_KNOTS('',7,(#333,#334,#335,#336,#337,#338,
    #339,#340,#341,#342,#343,#344,#345,#346),.UNSPECIFIED.,.F.,.F.,(8,6,
    8),(0.,0.612665855084,1.),.UNSPECIFIED.);
#333 = CARTESIAN_POINT('',(-7.040637737433E-02,2.55));
#334 = CARTESIAN_POINT('',(-7.040637737433E-02,2.425195986642));
#335 = CARTESIAN_POINT('',(-6.912484462973E-02,2.300200413108));
#336 = CARTESIAN_POINT('',(-6.655460090176E-02,2.17719934485));
#337 = CARTESIAN_POINT('',(-6.267758127764E-02,2.058558287602));
#338 = CARTESIAN_POINT('',(-5.747820248994E-02,1.947043030593));
#339 = CARTESIAN_POINT('',(-5.095127137426E-02,1.846001118416));
#340 = CARTESIAN_POINT('',(-3.818578421238E-02,1.705376126707));
#341 = CARTESIAN_POINT('',(-3.269673145597E-02,1.656555937894));
#342 = CARTESIAN_POINT('',(-2.672236354487E-02,1.615292560186));
#343 = CARTESIAN_POINT('',(-2.035128707427E-02,1.583107630416));
#344 = CARTESIAN_POINT('',(-1.369230537467E-02,1.561114964499));
#345 = CARTESIAN_POINT('',(-6.866417854769E-03,1.55));
#346 = CARTESIAN_POINT('',(0.,1.55));
#347 = ( GEOMETRIC_REPRESENTATION_CONTEXT(2) 
PARAMETRIC_REPRESENTATION_CONTEXT() REPRESENTATION_CONTEXT('2D SPACE',''
  ) );
#348 = ORIENTED_EDGE('',*,*,#349,.T.);
#349 = EDGE_CURVE('',#289,#350,#352,.T.);
#350 = VERTEX_POINT('',#351);
#351 = CARTESIAN_POINT('',(14.215,0.,3.62));
#352 = SURFACE_CURVE('',#353,(#380,#410),.PCURVE_S1.);
#353 = B_SPLINE_CURVE_WITH_KNOTS('',7,(#354,#355,#356,#357,#358,#359,
    #360,#361,#362,#363,#364,#365,#366,#367,#368,#369,#370,#371,#372,
    #373,#374,#375,#376,#377,#378,#379),.UNSPECIFIED.,.F.,.F.,(8,6,6,6,8
    ),(0.,0.193713291358,0.500014315158,0.806305889472,1.),
  .UNSPECIFIED.);
#354 = CARTESIAN_POINT('',(14.215,-1.110223024625E-15,5.62));
#355 = CARTESIAN_POINT('',(14.215,-9.765318220808E-02,5.62));
#356 = CARTESIAN_POINT('',(14.214217510925,-0.19468966092,5.608874300136
    ));
#357 = CARTESIAN_POINT('',(14.212669409445,-0.289319203626,
    5.586876961909));
#358 = CARTESIAN_POINT('',(14.210461185925,-0.379831522095,
    5.554699596452));
#359 = CARTESIAN_POINT('',(14.207770660263,-0.464693913407,
    5.513452067857));
#360 = CARTESIAN_POINT('',(14.204812068498,-0.542662497847,
    5.464642275077));
#361 = CARTESIAN_POINT('',(14.196987011469,-0.723978313704,
    5.323999311688));
#362 = CARTESIAN_POINT('',(14.191973004729,-0.816630449452,
    5.222956274275));
#363 = CARTESIAN_POINT('',(14.18736378913,-0.89039807827,5.111439675369)
  );
#364 = CARTESIAN_POINT('',(14.183634281394,-0.945382191813,
    4.992799786249));
#365 = CARTESIAN_POINT('',(14.181063823596,-0.981827024928,
    4.869801698164));
#366 = CARTESIAN_POINT('',(14.17978226208,-1.,4.744807863721));
#367 = CARTESIAN_POINT('',(14.17978226208,-1.,4.495195986642));
#368 = CARTESIAN_POINT('',(14.181063743526,-0.981828150018,
    4.370200413108));
#369 = CARTESIAN_POINT('',(14.183634251505,-0.945382627217,4.24719934485
    ));
#370 = CARTESIAN_POINT('',(14.18736388081,-0.890397050141,4.128558287602
    ));
#371 = CARTESIAN_POINT('',(14.19197305033,-0.816629180621,4.017043030593
    ));
#372 = CARTESIAN_POINT('',(14.196986987539,-0.72397886819,3.916001118416
    ));
#373 = CARTESIAN_POINT('',(14.204811876975,-0.542666935655,3.77536116724
    ));
#374 = CARTESIAN_POINT('',(14.207770572276,-0.464697123578,
    3.726548942301));
#375 = CARTESIAN_POINT('',(14.210461314981,-0.379829644908,
    3.685298276917));
#376 = CARTESIAN_POINT('',(14.212669642097,-0.289311415066,
    3.653119723333));
#377 = CARTESIAN_POINT('',(14.214217659439,-0.194678438276,
    3.631123582373));
#378 = CARTESIAN_POINT('',(14.215,-9.764387843571E-02,3.62));
#379 = CARTESIAN_POINT('',(14.215,-8.881784197001E-16,3.62));
#380 = PCURVE('',#117,#381);
#381 = DEFINITIONAL_REPRESENTATION('',(#382),#409);
#382 = B_SPLINE_CURVE_WITH_KNOTS('',7,(#383,#384,#385,#386,#387,#388,
    #389,#390,#391,#392,#393,#394,#395,#396,#397,#398,#399,#400,#401,
    #402,#403,#404,#405,#406,#407,#408),.UNSPECIFIED.,.F.,.F.,(8,6,6,6,8
    ),(0.,0.193713291358,0.500014315158,0.806305889472,1.),
  .UNSPECIFIED.);
#383 = CARTESIAN_POINT('',(-1.570796326795,-14.215));
#384 = CARTESIAN_POINT('',(-1.668449509003,-14.215));
#385 = CARTESIAN_POINT('',(-1.765485665705,-14.21421751092));
#386 = CARTESIAN_POINT('',(-1.861637448809,-14.21266940944));
#387 = CARTESIAN_POINT('',(-1.956624261743,-14.21046118592));
#388 = CARTESIAN_POINT('',(-2.050108280571,-14.20777066026));
#389 = CARTESIAN_POINT('',(-2.141631068543,-14.20481206849));
#390 = CARTESIAN_POINT('',(-2.371099733572,-14.19698701146));
#391 = CARTESIAN_POINT('',(-2.506239733604,-14.19197300472));
#392 = CARTESIAN_POINT('',(-2.637410697116,-14.18736378913));
#393 = CARTESIAN_POINT('',(-2.765616106708,-14.18363428139));
#394 = CARTESIAN_POINT('',(-2.891791327345,-14.18106382359));
#395 = CARTESIAN_POINT('',(-3.016784789869,-14.17978226208));
#396 = CARTESIAN_POINT('',(-3.266396666947,-14.17978226208));
#397 = CARTESIAN_POINT('',(-3.391391851148,-14.18106374352));
#398 = CARTESIAN_POINT('',(-3.517569831126,-14.1836342515));
#399 = CARTESIAN_POINT('',(-3.645776641363,-14.18736388081));
#400 = CARTESIAN_POINT('',(-3.776946994962,-14.19197305033));
#401 = CARTESIAN_POINT('',(-3.912084871863,-14.19698698753));
#402 = CARTESIAN_POINT('',(-4.14154862226,-14.20481187697));
#403 = CARTESIAN_POINT('',(-4.233073868592,-14.20777057227));
#404 = CARTESIAN_POINT('',(-4.326563618689,-14.21046131498));
#405 = CARTESIAN_POINT('',(-4.421556076903,-14.21266964209));
#406 = CARTESIAN_POINT('',(-4.517710865642,-14.21421765943));
#407 = CARTESIAN_POINT('',(-4.614745101949,-14.215));
#408 = CARTESIAN_POINT('',(-4.712388980385,-14.215));
#409 = ( GEOMETRIC_REPRESENTATION_CONTEXT(2) 
PARAMETRIC_REPRESENTATION_CONTEXT() REPRESENTATION_CONTEXT('2D SPACE',''
  ) );
#410 = PCURVE('',#326,#411);
#411 = DEFINITIONAL_REPRESENTATION('',(#412),#439);
#412 = B_SPLINE_CURVE_WITH_KNOTS('',7,(#413,#414,#415,#416,#417,#418,
    #419,#420,#421,#422,#423,#424,#425,#426,#427,#428,#429,#430,#431,
    #432,#433,#434,#435,#436,#437,#438),.UNSPECIFIED.,.F.,.F.,(8,6,6,6,8
    ),(0.,0.193713291358,0.500014315158,0.806305889472,1.),
  .UNSPECIFIED.);
#413 = CARTESIAN_POINT('',(-6.28318530718,1.55));
#414 = CARTESIAN_POINT('',(-6.276315579272,1.55));
#415 = CARTESIAN_POINT('',(-6.26948923456,1.561125699864));
#416 = CARTESIAN_POINT('',(-6.262831688168,1.583123038091));
#417 = CARTESIAN_POINT('',(-6.256462741794,1.615300403548));
#418 = CARTESIAN_POINT('',(-6.250490018807,1.656547932143));
#419 = CARTESIAN_POINT('',(-6.245001193422,1.705357724923));
#420 = CARTESIAN_POINT('',(-6.232234074849,1.846000688312));
#421 = CARTESIAN_POINT('',(-6.225707015388,1.947043725725));
#422 = CARTESIAN_POINT('',(-6.220507653321,2.058560324631));
#423 = CARTESIAN_POINT('',(-6.216630736983,2.177200213751));
#424 = CARTESIAN_POINT('',(-6.214060541891,2.300198301836));
#425 = CARTESIAN_POINT('',(-6.212778929805,2.425192136279));
#426 = CARTESIAN_POINT('',(-6.212778929805,2.674804013358));
#427 = CARTESIAN_POINT('',(-6.21406046255,2.799799586892));
#428 = CARTESIAN_POINT('',(-6.216630706278,2.92280065515));
#429 = CARTESIAN_POINT('',(-6.220507725902,3.041441712398));
#430 = CARTESIAN_POINT('',(-6.22570710469,3.152956969407));
#431 = CARTESIAN_POINT('',(-6.232234035805,3.253998881584));
#432 = CARTESIAN_POINT('',(-6.24500088094,3.39463883276));
#433 = CARTESIAN_POINT('',(-6.250489792928,3.443451057699));
#434 = CARTESIAN_POINT('',(-6.256462874064,3.484701723083));
#435 = CARTESIAN_POINT('',(-6.262832236257,3.516880276667));
#436 = CARTESIAN_POINT('',(-6.269490024039,3.538876417627));
#437 = CARTESIAN_POINT('',(-6.276316233776,3.55));
#438 = CARTESIAN_POINT('',(-6.28318530718,3.55));
#439 = ( GEOMETRIC_REPRESENTATION_CONTEXT(2) 
PARAMETRIC_REPRESENTATION_CONTEXT() REPRESENTATION_CONTEXT('2D SPACE',''
  ) );
#440 = ORIENTED_EDGE('',*,*,#441,.T.);
#441 = EDGE_CURVE('',#350,#266,#442,.T.);
#442 = SURFACE_CURVE('',#443,(#453,#466),.PCURVE_S1.);
#443 = B_SPLINE_CURVE_WITH_KNOTS('',8,(#444,#445,#446,#447,#448,#449,
    #450,#451,#452),.UNSPECIFIED.,.F.,.F.,(9,9),(0.,1.),
  .PIECEWISE_BEZIER_KNOTS.);
#444 = CARTESIAN_POINT('',(14.215,7.963299097641E-16,3.62));
#445 = CARTESIAN_POINT('',(14.215,0.226741429241,3.62));
#446 = CARTESIAN_POINT('',(14.210866368302,0.439509894963,3.678755341864
    ));
#447 = CARTESIAN_POINT('',(14.203492436663,0.625229659705,3.783602548472
    ));
#448 = CARTESIAN_POINT('',(14.195014740923,0.777157648,3.923259046917));
#449 = CARTESIAN_POINT('',(14.187474131103,0.89091317106,4.086905621494)
  );
#450 = CARTESIAN_POINT('',(14.182250303425,0.96500747788,4.264170075921)
  );
#451 = CARTESIAN_POINT('',(14.17978226208,1.,4.4450170009));
#452 = CARTESIAN_POINT('',(14.17978226208,1.,4.62));
#453 = PCURVE('',#117,#454);
#454 = DEFINITIONAL_REPRESENTATION('',(#455),#465);
#455 = B_SPLINE_CURVE_WITH_KNOTS('',8,(#456,#457,#458,#459,#460,#461,
    #462,#463,#464),.UNSPECIFIED.,.F.,.F.,(9,9),(0.,1.),
  .PIECEWISE_BEZIER_KNOTS.);
#456 = CARTESIAN_POINT('',(-4.712388980385,-14.215));
#457 = CARTESIAN_POINT('',(-4.939130409626,-14.215));
#458 = CARTESIAN_POINT('',(-5.151902475708,-14.2108663683));
#459 = CARTESIAN_POINT('',(-5.355360211429,-14.20349243666));
#460 = CARTESIAN_POINT('',(-5.551485917715,-14.19501474092));
#461 = CARTESIAN_POINT('',(-5.741929873838,-14.1874741311));
#462 = CARTESIAN_POINT('',(-5.927354493553,-14.18225030342));
#463 = CARTESIAN_POINT('',(-6.10820230808,-14.17978226208));
#464 = CARTESIAN_POINT('',(-6.28318530718,-14.17978226208));
#465 = ( GEOMETRIC_REPRESENTATION_CONTEXT(2) 
PARAMETRIC_REPRESENTATION_CONTEXT() REPRESENTATION_CONTEXT('2D SPACE',''
  ) );
#466 = PCURVE('',#326,#467);
#467 = DEFINITIONAL_REPRESENTATION('',(#468),#478);
#468 = B_SPLINE_CURVE_WITH_KNOTS('',8,(#469,#470,#471,#472,#473,#474,
    #475,#476,#477),.UNSPECIFIED.,.F.,.F.,(9,9),(0.,1.),
  .PIECEWISE_BEZIER_KNOTS.);
#469 = CARTESIAN_POINT('',(0.,3.55));
#470 = CARTESIAN_POINT('',(-1.595085678798E-02,3.55));
#471 = CARTESIAN_POINT('',(-3.091874378104E-02,3.491244658136));
#472 = CARTESIAN_POINT('',(-4.398996232718E-02,3.386397451528));
#473 = CARTESIAN_POINT('',(-5.469324965409E-02,3.246740953083));
#474 = CARTESIAN_POINT('',(-6.271326688726E-02,3.083094378506));
#475 = CARTESIAN_POINT('',(-6.793859877226E-02,2.905829924079));
#476 = CARTESIAN_POINT('',(-7.040637737433E-02,2.7249829991));
#477 = CARTESIAN_POINT('',(-7.040637737433E-02,2.55));
#478 = ( GEOMETRIC_REPRESENTATION_CONTEXT(2) 
PARAMETRIC_REPRESENTATION_CONTEXT() REPRESENTATION_CONTEXT('2D SPACE',''
  ) );
#479 = ORIENTED_EDGE('',*,*,#265,.F.);
#480 = ORIENTED_EDGE('',*,*,#481,.F.);
#481 = EDGE_CURVE('',#482,#227,#484,.T.);
#482 = VERTEX_POINT('',#483);
#483 = CARTESIAN_POINT('',(13.162921408259,0.988685996664,4.47));
#484 = SURFACE_CURVE('',#485,(#491,#500),.PCURVE_S1.);
#485 = B_SPLINE_CURVE_WITH_KNOTS('',4,(#486,#487,#488,#489,#490),
  .UNSPECIFIED.,.F.,.F.,(5,5),(0.,1.),.PIECEWISE_BEZIER_KNOTS.);
#486 = CARTESIAN_POINT('',(13.162921415096,0.988685905634,4.4699994));
#487 = CARTESIAN_POINT('',(13.162496262158,0.994346201473,4.507307615551
    ));
#488 = CARTESIAN_POINT('',(13.16220988865,0.998115419715,4.544808550162)
  );
#489 = CARTESIAN_POINT('',(13.162066707018,1.,4.582404201102));
#490 = CARTESIAN_POINT('',(13.162066707018,1.,4.62));
#491 = PCURVE('',#117,#492);
#492 = DEFINITIONAL_REPRESENTATION('',(#493),#499);
#493 = B_SPLINE_CURVE_WITH_KNOTS('',4,(#494,#495,#496,#497,#498),
  .UNSPECIFIED.,.F.,.F.,(5,5),(0.,1.),.PIECEWISE_BEZIER_KNOTS.);
#494 = CARTESIAN_POINT('',(-6.132616427537,-13.16292141509));
#495 = CARTESIAN_POINT('',(-6.170351582188,-13.16249626215));
#496 = CARTESIAN_POINT('',(-6.207993740269,-13.16220988865));
#497 = CARTESIAN_POINT('',(-6.245589508282,-13.16206670701));
#498 = CARTESIAN_POINT('',(-6.28318530718,-13.16206670701));
#499 = ( GEOMETRIC_REPRESENTATION_CONTEXT(2) 
PARAMETRIC_REPRESENTATION_CONTEXT() REPRESENTATION_CONTEXT('2D SPACE',''
  ) );
#500 = PCURVE('',#250,#501);
#501 = DEFINITIONAL_REPRESENTATION('',(#502),#508);
#502 = B_SPLINE_CURVE_WITH_KNOTS('',4,(#503,#504,#505,#506,#507),
  .UNSPECIFIED.,.F.,.F.,(5,5),(0.,1.),.PIECEWISE_BEZIER_KNOTS.);
#503 = CARTESIAN_POINT('',(7.497065766941E-02,-6.E-07));
#504 = CARTESIAN_POINT('',(7.540067587436E-02,3.730761555052E-02));
#505 = CARTESIAN_POINT('',(7.568704560839E-02,7.480855016215E-02));
#506 = CARTESIAN_POINT('',(7.583022832651E-02,0.112404201102));
#507 = CARTESIAN_POINT('',(7.583022832651E-02,0.15));
#508 = ( GEOMETRIC_REPRESENTATION_CONTEXT(2) 
PARAMETRIC_REPRESENTATION_CONTEXT() REPRESENTATION_CONTEXT('2D SPACE',''
  ) );
#509 = ORIENTED_EDGE('',*,*,#510,.T.);
#510 = EDGE_CURVE('',#482,#141,#511,.T.);
#511 = SURFACE_CURVE('',#512,(#516,#522),.PCURVE_S1.);
#512 = LINE('',#513,#514);
#513 = CARTESIAN_POINT('',(0.,0.988685996664,4.47));
#514 = VECTOR('',#515,1.);
#515 = DIRECTION('',(-1.,-0.,-0.));
#516 = PCURVE('',#117,#517);
#517 = DEFINITIONAL_REPRESENTATION('',(#518),#521);
#518 = B_SPLINE_CURVE_WITH_KNOTS('',1,(#519,#520),.UNSPECIFIED.,.F.,.F.,
  (2,2),(-15.84,6.E-07),.PIECEWISE_BEZIER_KNOTS.);
#519 = CARTESIAN_POINT('',(-6.132617034403,-15.84));
#520 = CARTESIAN_POINT('',(-6.132617034403,6.E-07));
#521 = ( GEOMETRIC_REPRESENTATION_CONTEXT(2) 
PARAMETRIC_REPRESENTATION_CONTEXT() REPRESENTATION_CONTEXT('2D SPACE',''
  ) );
#522 = PCURVE('',#157,#523);
#523 = DEFINITIONAL_REPRESENTATION('',(#524),#527);
#524 = B_SPLINE_CURVE_WITH_KNOTS('',1,(#525,#526),.UNSPECIFIED.,.F.,.F.,
  (2,2),(-15.84,6.E-07),.PIECEWISE_BEZIER_KNOTS.);
#525 = CARTESIAN_POINT('',(15.84,0.988685996664));
#526 = CARTESIAN_POINT('',(-6.E-07,0.988685996664));
#527 = ( GEOMETRIC_REPRESENTATION_CONTEXT(2) 
PARAMETRIC_REPRESENTATION_CONTEXT() REPRESENTATION_CONTEXT('2D SPACE',''
  ) );
#528 = ORIENTED_EDGE('',*,*,#169,.F.);
#529 = ORIENTED_EDGE('',*,*,#79,.F.);
#530 = ORIENTED_EDGE('',*,*,#531,.F.);
#531 = EDGE_CURVE('',#532,#80,#534,.T.);
#532 = VERTEX_POINT('',#533);
#533 = CARTESIAN_POINT('',(13.162921408259,-0.988685996664,4.47));
#534 = SURFACE_CURVE('',#535,(#539,#545),.PCURVE_S1.);
#535 = LINE('',#536,#537);
#536 = CARTESIAN_POINT('',(0.,-0.988685996664,4.47));
#537 = VECTOR('',#538,1.);
#538 = DIRECTION('',(-1.,-0.,-0.));
#539 = PCURVE('',#117,#540);
#540 = DEFINITIONAL_REPRESENTATION('',(#541),#544);
#541 = B_SPLINE_CURVE_WITH_KNOTS('',1,(#542,#543),.UNSPECIFIED.,.F.,.F.,
  (2,2),(-15.84,6.E-07),.PIECEWISE_BEZIER_KNOTS.);
#542 = CARTESIAN_POINT('',(-3.292160926366,-15.84));
#543 = CARTESIAN_POINT('',(-3.292160926366,6.E-07));
#544 = ( GEOMETRIC_REPRESENTATION_CONTEXT(2) 
PARAMETRIC_REPRESENTATION_CONTEXT() REPRESENTATION_CONTEXT('2D SPACE',''
  ) );
#545 = PCURVE('',#157,#546);
#546 = DEFINITIONAL_REPRESENTATION('',(#547),#550);
#547 = B_SPLINE_CURVE_WITH_KNOTS('',1,(#548,#549),.UNSPECIFIED.,.F.,.F.,
  (2,2),(-15.84,6.E-07),.PIECEWISE_BEZIER_KNOTS.);
#548 = CARTESIAN_POINT('',(15.84,-0.988685996664));
#549 = CARTESIAN_POINT('',(-6.E-07,-0.988685996664));
#550 = ( GEOMETRIC_REPRESENTATION_CONTEXT(2) 
PARAMETRIC_REPRESENTATION_CONTEXT() REPRESENTATION_CONTEXT('2D SPACE',''
  ) );
#551 = ORIENTED_EDGE('',*,*,#552,.F.);
#552 = EDGE_CURVE('',#553,#532,#555,.T.);
#553 = VERTEX_POINT('',#554);
#554 = CARTESIAN_POINT('',(13.166719409177,-0.93674969976,4.97));
#555 = SURFACE_CURVE('',#556,(#567,#581),.PCURVE_S1.);
#556 = B_SPLINE_CURVE_WITH_KNOTS('',5,(#557,#558,#559,#560,#561,#562,
    #563,#564,#565,#566),.UNSPECIFIED.,.F.,.F.,(6,4,6),(0.,
    0.702507955527,1.),.UNSPECIFIED.);
#557 = CARTESIAN_POINT('',(13.166719425126,-0.93674947558,4.9700006));
#558 = CARTESIAN_POINT('',(13.164914156381,-0.962123887505,
    4.902087953383));
#559 = CARTESIAN_POINT('',(13.163503889868,-0.981082950578,
    4.832575016717));
#560 = CARTESIAN_POINT('',(13.162545769359,-0.993694759901,
    4.762046806404));
#561 = CARTESIAN_POINT('',(13.162066707018,-1.,4.69102401646));
#562 = CARTESIAN_POINT('',(13.162066707018,-1.,4.589923358594));
#563 = CARTESIAN_POINT('',(13.162152615949,-0.998869252068,4.55984681031
    ));
#564 = CARTESIAN_POINT('',(13.162324438019,-0.996607732466,
    4.529808175977));
#565 = CARTESIAN_POINT('',(13.162581292774,-0.993214141924,
    4.499845969927));
#566 = CARTESIAN_POINT('',(13.162921415096,-0.988685905634,4.4699994));
#567 = PCURVE('',#117,#568);
#568 = DEFINITIONAL_REPRESENTATION('',(#569),#580);
#569 = B_SPLINE_CURVE_WITH_KNOTS('',5,(#570,#571,#572,#573,#574,#575,
    #576,#577,#578,#579),.UNSPECIFIED.,.F.,.F.,(6,4,6),(0.,
    0.702507955527,1.),.UNSPECIFIED.);
#570 = CARTESIAN_POINT('',(-2.784020909432,-13.16671942512));
#571 = CARTESIAN_POINT('',(-2.856519104934,-13.16491415638));
#572 = CARTESIAN_POINT('',(-2.928271056684,-13.16350388986));
#573 = CARTESIAN_POINT('',(-2.999545928568,-13.16254576935));
#574 = CARTESIAN_POINT('',(-3.07056863713,-13.16206670701));
#575 = CARTESIAN_POINT('',(-3.171669294996,-13.16206670701));
#576 = CARTESIAN_POINT('',(-3.201745916409,-13.16215261594));
#577 = CARTESIAN_POINT('',(-3.231841086974,-13.16232443801));
#578 = CARTESIAN_POINT('',(-3.261973412054,-13.16258129277));
#579 = CARTESIAN_POINT('',(-3.292161533233,-13.16292141509));
#580 = ( GEOMETRIC_REPRESENTATION_CONTEXT(2) 
PARAMETRIC_REPRESENTATION_CONTEXT() REPRESENTATION_CONTEXT('2D SPACE',''
  ) );
#581 = PCURVE('',#250,#582);
#582 = DEFINITIONAL_REPRESENTATION('',(#583),#594);
#583 = B_SPLINE_CURVE_WITH_KNOTS('',5,(#584,#585,#586,#587,#588,#589,
    #590,#591,#592,#593),.UNSPECIFIED.,.F.,.F.,(6,4,6),(0.,
    0.702507955527,1.),.UNSPECIFIED.);
#584 = CARTESIAN_POINT('',(6.212159736571,0.5000006));
#585 = CARTESIAN_POINT('',(6.210232573767,0.432087953383));
#586 = CARTESIAN_POINT('',(6.208792320038,0.362575016717));
#587 = CARTESIAN_POINT('',(6.207834124881,0.292046806404));
#588 = CARTESIAN_POINT('',(6.207355078853,0.22102401646));
#589 = CARTESIAN_POINT('',(6.207355078853,0.119923358594));
#590 = CARTESIAN_POINT('',(6.207440988466,8.984681031E-02));
#591 = CARTESIAN_POINT('',(6.207612809462,5.980817597656E-02));
#592 = CARTESIAN_POINT('',(6.207870634975,2.984596992697E-02));
#593 = CARTESIAN_POINT('',(6.20821464951,-6.E-07));
#594 = ( GEOMETRIC_REPRESENTATION_CONTEXT(2) 
PARAMETRIC_REPRESENTATION_CONTEXT() REPRESENTATION_CONTEXT('2D SPACE',''
  ) );
#595 = ORIENTED_EDGE('',*,*,#596,.T.);
#596 = EDGE_CURVE('',#553,#597,#599,.T.);
#597 = VERTEX_POINT('',#598);
#598 = CARTESIAN_POINT('',(12.79074372349,-0.93674969976,4.97));
#599 = SURFACE_CURVE('',#600,(#604,#610),.PCURVE_S1.);
#600 = LINE('',#601,#602);
#601 = CARTESIAN_POINT('',(0.,-0.93674969976,4.97));
#602 = VECTOR('',#603,1.);
#603 = DIRECTION('',(-1.,-0.,-0.));
#604 = PCURVE('',#117,#605);
#605 = DEFINITIONAL_REPRESENTATION('',(#606),#609);
#606 = B_SPLINE_CURVE_WITH_KNOTS('',1,(#607,#608),.UNSPECIFIED.,.F.,.F.,
  (2,2),(-15.84,6.E-07),.PIECEWISE_BEZIER_KNOTS.);
#607 = CARTESIAN_POINT('',(-2.784021549944,-15.84));
#608 = CARTESIAN_POINT('',(-2.784021549944,6.E-07));
#609 = ( GEOMETRIC_REPRESENTATION_CONTEXT(2) 
PARAMETRIC_REPRESENTATION_CONTEXT() REPRESENTATION_CONTEXT('2D SPACE',''
  ) );
#610 = PCURVE('',#611,#616);
#611 = PLANE('',#612);
#612 = AXIS2_PLACEMENT_3D('',#613,#614,#615);
#613 = CARTESIAN_POINT('',(0.,0.,4.97));
#614 = DIRECTION('',(0.,0.,1.));
#615 = DIRECTION('',(1.,0.,-0.));
#616 = DEFINITIONAL_REPRESENTATION('',(#617),#620);
#617 = B_SPLINE_CURVE_WITH_KNOTS('',1,(#618,#619),.UNSPECIFIED.,.F.,.F.,
  (2,2),(-15.84,6.E-07),.PIECEWISE_BEZIER_KNOTS.);
#618 = CARTESIAN_POINT('',(15.84,-0.93674969976));
#619 = CARTESIAN_POINT('',(-6.E-07,-0.93674969976));
#620 = ( GEOMETRIC_REPRESENTATION_CONTEXT(2) 
PARAMETRIC_REPRESENTATION_CONTEXT() REPRESENTATION_CONTEXT('2D SPACE',''
  ) );
#621 = ORIENTED_EDGE('',*,*,#622,.F.);
#622 = EDGE_CURVE('',#623,#597,#625,.T.);
#623 = VERTEX_POINT('',#624);
#624 = CARTESIAN_POINT('',(12.795726825781,-0.866025403784,5.12));
#625 = SURFACE_CURVE('',#626,(#632,#641),.PCURVE_S1.);
#626 = B_SPLINE_CURVE_WITH_KNOTS('',4,(#627,#628,#629,#630,#631),
  .UNSPECIFIED.,.F.,.F.,(5,5),(0.,1.),.PIECEWISE_BEZIER_KNOTS.);
#627 = CARTESIAN_POINT('',(12.795726849226,-0.866025057374,5.1200006));
#628 = CARTESIAN_POINT('',(12.794305576022,-0.887024708065,
    5.083628196258));
#629 = CARTESIAN_POINT('',(12.79298837704,-0.905804605605,5.046396485696
    ));
#630 = CARTESIAN_POINT('',(12.79179649472,-0.922374756519,5.008473571633
    ));
#631 = CARTESIAN_POINT('',(12.790743707072,-0.936749923939,4.9699994));
#632 = PCURVE('',#117,#633);
#633 = DEFINITIONAL_REPRESENTATION('',(#634),#640);
#634 = B_SPLINE_CURVE_WITH_KNOTS('',4,(#635,#636,#637,#638,#639),
  .UNSPECIFIED.,.F.,.F.,(5,5),(0.,1.),.PIECEWISE_BEZIER_KNOTS.);
#635 = CARTESIAN_POINT('',(-2.617993185171,-12.79572684922));
#636 = CARTESIAN_POINT('',(-2.659992436154,-12.79430557602));
#637 = CARTESIAN_POINT('',(-2.701626195725,-12.79298837704));
#638 = CARTESIAN_POINT('',(-2.742950213134,-12.79179649472));
#639 = CARTESIAN_POINT('',(-2.784022190457,-12.79074370707));
#640 = ( GEOMETRIC_REPRESENTATION_CONTEXT(2) 
PARAMETRIC_REPRESENTATION_CONTEXT() REPRESENTATION_CONTEXT('2D SPACE',''
  ) );
#641 = PCURVE('',#642,#647);
#642 = CYLINDRICAL_SURFACE('',#643,12.825);
#643 = AXIS2_PLACEMENT_3D('',#644,#645,#646);
#644 = CARTESIAN_POINT('',(0.,0.,4.97));
#645 = DIRECTION('',(0.,0.,1.));
#646 = DIRECTION('',(1.,0.,-0.));
#647 = DEFINITIONAL_REPRESENTATION('',(#648),#654);
#648 = B_SPLINE_CURVE_WITH_KNOTS('',4,(#649,#650,#651,#652,#653),
  .UNSPECIFIED.,.F.,.F.,(5,5),(0.,1.),.PIECEWISE_BEZIER_KNOTS.);
#649 = CARTESIAN_POINT('',(6.215607563533,0.1500006));
#650 = CARTESIAN_POINT('',(6.213966417943,0.113628196258));
#651 = CARTESIAN_POINT('',(6.212498505178,7.639648569612E-02));
#652 = CARTESIAN_POINT('',(6.21120314842,3.847357163321E-02));
#653 = CARTESIAN_POINT('',(6.210079275739,-6.E-07));
#654 = ( GEOMETRIC_REPRESENTATION_CONTEXT(2) 
PARAMETRIC_REPRESENTATION_CONTEXT() REPRESENTATION_CONTEXT('2D SPACE',''
  ) );
#655 = ORIENTED_EDGE('',*,*,#656,.F.);
#656 = EDGE_CURVE('',#657,#623,#659,.T.);
#657 = VERTEX_POINT('',#658);
#658 = CARTESIAN_POINT('',(13.046287786187,-0.866025403784,5.12));
#659 = SURFACE_CURVE('',#660,(#664,#670),.PCURVE_S1.);
#660 = LINE('',#661,#662);
#661 = CARTESIAN_POINT('',(0.,-0.866025403784,5.12));
#662 = VECTOR('',#663,1.);
#663 = DIRECTION('',(-1.,-0.,-0.));
#664 = PCURVE('',#117,#665);
#665 = DEFINITIONAL_REPRESENTATION('',(#666),#669);
#666 = B_SPLINE_CURVE_WITH_KNOTS('',1,(#667,#668),.UNSPECIFIED.,.F.,.F.,
  (2,2),(-15.69,6.E-07),.PIECEWISE_BEZIER_KNOTS.);
#667 = CARTESIAN_POINT('',(-2.617993877991,-15.69));
#668 = CARTESIAN_POINT('',(-2.617993877991,6.E-07));
#669 = ( GEOMETRIC_REPRESENTATION_CONTEXT(2) 
PARAMETRIC_REPRESENTATION_CONTEXT() REPRESENTATION_CONTEXT('2D SPACE',''
  ) );
#670 = PCURVE('',#671,#676);
#671 = PLANE('',#672);
#672 = AXIS2_PLACEMENT_3D('',#673,#674,#675);
#673 = CARTESIAN_POINT('',(0.,0.,5.12));
#674 = DIRECTION('',(0.,0.,1.));
#675 = DIRECTION('',(1.,0.,-0.));
#676 = DEFINITIONAL_REPRESENTATION('',(#677),#680);
#677 = B_SPLINE_CURVE_WITH_KNOTS('',1,(#678,#679),.UNSPECIFIED.,.F.,.F.,
  (2,2),(-15.69,6.E-07),.PIECEWISE_BEZIER_KNOTS.);
#678 = CARTESIAN_POINT('',(15.69,-0.866025403784));
#679 = CARTESIAN_POINT('',(-6.E-07,-0.866025403784));
#680 = ( GEOMETRIC_REPRESENTATION_CONTEXT(2) 
PARAMETRIC_REPRESENTATION_CONTEXT() REPRESENTATION_CONTEXT('2D SPACE',''
  ) );
#681 = ORIENTED_EDGE('',*,*,#682,.F.);
#682 = EDGE_CURVE('',#683,#657,#685,.T.);
#683 = VERTEX_POINT('',#684);
#684 = CARTESIAN_POINT('',(13.075,0.,5.62));
#685 = SURFACE_CURVE('',#686,(#699,#715),.PCURVE_S1.);
#686 = B_SPLINE_CURVE_WITH_KNOTS('',6,(#687,#688,#689,#690,#691,#692,
    #693,#694,#695,#696,#697,#698),.UNSPECIFIED.,.F.,.F.,(7,5,7),(0.,
    0.531523403527,1.),.UNSPECIFIED.);
#687 = CARTESIAN_POINT('',(13.075,-9.992007221626E-16,5.62));
#688 = CARTESIAN_POINT('',(13.075,-9.959598790595E-02,5.62));
#689 = CARTESIAN_POINT('',(13.074089725923,-0.198706716787,
    5.608096634879));
#690 = CARTESIAN_POINT('',(13.072285092674,-0.295136600926,5.58450831871
    ));
#691 = CARTESIAN_POINT('',(13.069738284328,-0.38677829251,5.550134049122
    ));
#692 = CARTESIAN_POINT('',(13.066712519752,-0.471825113714,
    5.506516774935));
#693 = CARTESIAN_POINT('',(13.060608528549,-0.617063693562,
    5.411112860018));
#694 = CARTESIAN_POINT('',(13.05756721223,-0.679287738347,5.360724900112
    ));
#695 = CARTESIAN_POINT('',(13.054492952619,-0.735415616991,
    5.305585364005));
#696 = CARTESIAN_POINT('',(13.051519566865,-0.785281093446,
    5.246560842772));
#697 = CARTESIAN_POINT('',(13.048757888585,-0.828814423982,
    5.184451410739));
#698 = CARTESIAN_POINT('',(13.046287763192,-0.866025750194,5.1199994));
#699 = PCURVE('',#117,#700);
#700 = DEFINITIONAL_REPRESENTATION('',(#701),#714);
#701 = B_SPLINE_CURVE_WITH_KNOTS('',6,(#702,#703,#704,#705,#706,#707,
    #708,#709,#710,#711,#712,#713),.UNSPECIFIED.,.F.,.F.,(7,5,7),(0.,
    0.531523403527,1.),.UNSPECIFIED.);
#702 = CARTESIAN_POINT('',(-1.570796326795,-13.075));
#703 = CARTESIAN_POINT('',(-1.670392314701,-13.075));
#704 = CARTESIAN_POINT('',(-1.76950282575,-13.07408972592));
#705 = CARTESIAN_POINT('',(-1.867712117207,-13.07228509267));
#706 = CARTESIAN_POINT('',(-1.964598526203,-13.06973828432));
#707 = CARTESIAN_POINT('',(-2.059627933052,-13.06671251975));
#708 = CARTESIAN_POINT('',(-2.23339833346,-13.06060852854));
#709 = CARTESIAN_POINT('',(-2.313070536755,-13.05756721223));
#710 = CARTESIAN_POINT('',(-2.391224279283,-13.05449295261));
#711 = CARTESIAN_POINT('',(-2.468017531404,-13.05151956686));
#712 = CARTESIAN_POINT('',(-2.54357182908,-13.04875788858));
#713 = CARTESIAN_POINT('',(-2.617994570812,-13.04628776319));
#714 = ( GEOMETRIC_REPRESENTATION_CONTEXT(2) 
PARAMETRIC_REPRESENTATION_CONTEXT() REPRESENTATION_CONTEXT('2D SPACE',''
  ) );
#715 = PCURVE('',#716,#721);
#716 = CYLINDRICAL_SURFACE('',#717,13.075);
#717 = AXIS2_PLACEMENT_3D('',#718,#719,#720);
#718 = CARTESIAN_POINT('',(0.,0.,5.12));
#719 = DIRECTION('',(0.,0.,1.));
#720 = DIRECTION('',(1.,0.,-0.));
#721 = DEFINITIONAL_REPRESENTATION('',(#722),#735);
#722 = B_SPLINE_CURVE_WITH_KNOTS('',6,(#723,#724,#725,#726,#727,#728,
    #729,#730,#731,#732,#733,#734),.UNSPECIFIED.,.F.,.F.,(7,5,7),(0.,
    0.531523403527,1.),.UNSPECIFIED.);
#723 = CARTESIAN_POINT('',(6.28318530718,0.5));
#724 = CARTESIAN_POINT('',(6.27556802321,0.5));
#725 = CARTESIAN_POINT('',(6.267987851774,0.488096634879));
#726 = CARTESIAN_POINT('',(6.260611926886,0.46450831871));
#727 = CARTESIAN_POINT('',(6.253600637497,0.430134049122));
#728 = CARTESIAN_POINT('',(6.247092119199,0.386516774935));
#729 = CARTESIAN_POINT('',(6.235974200231,0.291112860018));
#730 = CARTESIAN_POINT('',(6.231209621351,0.240724900112));
#731 = CARTESIAN_POINT('',(6.226910516358,0.185585364005));
#732 = CARTESIAN_POINT('',(6.223089983847,0.126560842772));
#733 = CARTESIAN_POINT('',(6.2197537961,6.445141073948E-02));
#734 = CARTESIAN_POINT('',(6.216901542119,-6.E-07));
#735 = ( GEOMETRIC_REPRESENTATION_CONTEXT(2) 
PARAMETRIC_REPRESENTATION_CONTEXT() REPRESENTATION_CONTEXT('2D SPACE',''
  ) );
#736 = ORIENTED_EDGE('',*,*,#737,.F.);
#737 = EDGE_CURVE('',#738,#683,#740,.T.);
#738 = VERTEX_POINT('',#739);
#739 = CARTESIAN_POINT('',(13.046287786187,0.866025403784,5.12));
#740 = SURFACE_CURVE('',#741,(#754,#770),.PCURVE_S1.);
#741 = B_SPLINE_CURVE_WITH_KNOTS('',6,(#742,#743,#744,#745,#746,#747,
    #748,#749,#750,#751,#752,#753),.UNSPECIFIED.,.F.,.F.,(7,5,7),(0.,
    0.483468775478,1.),.UNSPECIFIED.);
#742 = CARTESIAN_POINT('',(13.046287763192,0.866025750194,5.1199994));
#743 = CARTESIAN_POINT('',(13.048837064174,0.827621679408,5.186517308247
    ));
#744 = CARTESIAN_POINT('',(13.051697292802,0.782477389365,5.250550331447
    ));
#745 = CARTESIAN_POINT('',(13.054780456232,0.730586408253,5.311270205149
    ));
#746 = CARTESIAN_POINT('',(13.057963311986,0.672028963106,5.367792831864
    ));
#747 = CARTESIAN_POINT('',(13.061096891365,0.60699826512,5.419161137116)
  );
#748 = CARTESIAN_POINT('',(13.067134781819,0.459788199546,5.512583485522
    ));
#749 = CARTESIAN_POINT('',(13.070021351365,0.376437629681,5.553952484834
    ));
#750 = CARTESIAN_POINT('',(13.072435857238,0.286978102561,5.586478562762
    ));
#751 = CARTESIAN_POINT('',(13.074140736521,0.193101261926,5.608763865175
    ));
#752 = CARTESIAN_POINT('',(13.075,9.676441863253E-02,5.62));
#753 = CARTESIAN_POINT('',(13.075,5.971700597435E-16,5.62));
#754 = PCURVE('',#117,#755);
#755 = DEFINITIONAL_REPRESENTATION('',(#756),#769);
#756 = B_SPLINE_CURVE_WITH_KNOTS('',6,(#757,#758,#759,#760,#761,#762,
    #763,#764,#765,#766,#767,#768),.UNSPECIFIED.,.F.,.F.,(7,5,7),(0.,
    0.483468775478,1.),.UNSPECIFIED.);
#757 = CARTESIAN_POINT('',(-0.523598082778,-13.04628776319));
#758 = CARTESIAN_POINT('',(-0.60040631652,-13.04883706417));
#759 = CARTESIAN_POINT('',(-0.678431898576,-13.0516972928));
#760 = CARTESIAN_POINT('',(-0.757780071984,-13.05478045623));
#761 = CARTESIAN_POINT('',(-0.838583280795,-13.05796331198));
#762 = CARTESIAN_POINT('',(-0.921016013949,-13.06109689136));
#763 = CARTESIAN_POINT('',(-1.095367780754,-13.06713478181));
#764 = CARTESIAN_POINT('',(-1.187909417124,-13.07002135136));
#765 = CARTESIAN_POINT('',(-1.282186576156,-13.07243585723));
#766 = CARTESIAN_POINT('',(-1.377695249636,-13.07414073652));
#767 = CARTESIAN_POINT('',(-1.474031908162,-13.075));
#768 = CARTESIAN_POINT('',(-1.570796326795,-13.075));
#769 = ( GEOMETRIC_REPRESENTATION_CONTEXT(2) 
PARAMETRIC_REPRESENTATION_CONTEXT() REPRESENTATION_CONTEXT('2D SPACE',''
  ) );
#770 = PCURVE('',#716,#771);
#771 = DEFINITIONAL_REPRESENTATION('',(#772),#785);
#772 = B_SPLINE_CURVE_WITH_KNOTS('',6,(#773,#774,#775,#776,#777,#778,
    #779,#780,#781,#782,#783,#784),.UNSPECIFIED.,.F.,.F.,(7,5,7),(0.,
    0.483468775478,1.),.UNSPECIFIED.);
#773 = CARTESIAN_POINT('',(6.628376506068E-02,-6.E-07));
#774 = CARTESIAN_POINT('',(6.334008702114E-02,6.651730824748E-02));
#775 = CARTESIAN_POINT('',(5.988046135058E-02,0.130550331447));
#776 = CARTESIAN_POINT('',(5.590479467009E-02,0.191270205149));
#777 = CARTESIAN_POINT('',(5.141970800465E-02,0.247792831864));
#778 = CARTESIAN_POINT('',(4.6440397708E-02,0.299161137116));
#779 = CARTESIAN_POINT('',(3.517203541291E-02,0.392583485522));
#780 = CARTESIAN_POINT('',(2.879353791006E-02,0.433952484834));
#781 = CARTESIAN_POINT('',(2.194933792264E-02,0.466478562762));
#782 = CARTESIAN_POINT('',(1.476873982329E-02,0.488763865175));
#783 = CARTESIAN_POINT('',(7.400720354305E-03,0.5));
#784 = CARTESIAN_POINT('',(0.,0.5));
#785 = ( GEOMETRIC_REPRESENTATION_CONTEXT(2) 
PARAMETRIC_REPRESENTATION_CONTEXT() REPRESENTATION_CONTEXT('2D SPACE',''
  ) );
#786 = ORIENTED_EDGE('',*,*,#787,.T.);
#787 = EDGE_CURVE('',#738,#788,#790,.T.);
#788 = VERTEX_POINT('',#789);
#789 = CARTESIAN_POINT('',(12.795726825781,0.866025403784,5.12));
#790 = SURFACE_CURVE('',#791,(#795,#801),.PCURVE_S1.);
#791 = LINE('',#792,#793);
#792 = CARTESIAN_POINT('',(0.,0.866025403784,5.12));
#793 = VECTOR('',#794,1.);
#794 = DIRECTION('',(-1.,-0.,-0.));
#795 = PCURVE('',#117,#796);
#796 = DEFINITIONAL_REPRESENTATION('',(#797),#800);
#797 = B_SPLINE_CURVE_WITH_KNOTS('',1,(#798,#799),.UNSPECIFIED.,.F.,.F.,
  (2,2),(-15.69,6.E-07),.PIECEWISE_BEZIER_KNOTS.);
#798 = CARTESIAN_POINT('',(-0.523598775598,-15.69));
#799 = CARTESIAN_POINT('',(-0.523598775598,6.E-07));
#800 = ( GEOMETRIC_REPRESENTATION_CONTEXT(2) 
PARAMETRIC_REPRESENTATION_CONTEXT() REPRESENTATION_CONTEXT('2D SPACE',''
  ) );
#801 = PCURVE('',#671,#802);
#802 = DEFINITIONAL_REPRESENTATION('',(#803),#806);
#803 = B_SPLINE_CURVE_WITH_KNOTS('',1,(#804,#805),.UNSPECIFIED.,.F.,.F.,
  (2,2),(-15.69,6.E-07),.PIECEWISE_BEZIER_KNOTS.);
#804 = CARTESIAN_POINT('',(15.69,0.866025403784));
#805 = CARTESIAN_POINT('',(-6.E-07,0.866025403784));
#806 = ( GEOMETRIC_REPRESENTATION_CONTEXT(2) 
PARAMETRIC_REPRESENTATION_CONTEXT() REPRESENTATION_CONTEXT('2D SPACE',''
  ) );
#807 = ORIENTED_EDGE('',*,*,#808,.F.);
#808 = EDGE_CURVE('',#809,#788,#811,.T.);
#809 = VERTEX_POINT('',#810);
#810 = CARTESIAN_POINT('',(12.79074372349,0.93674969976,4.97));
#811 = SURFACE_CURVE('',#812,(#818,#827),.PCURVE_S1.);
#812 = B_SPLINE_CURVE_WITH_KNOTS('',4,(#813,#814,#815,#816,#817),
  .UNSPECIFIED.,.F.,.F.,(5,5),(0.,1.),.PIECEWISE_BEZIER_KNOTS.);
#813 = CARTESIAN_POINT('',(12.790743707072,0.936749923939,4.9699994));
#814 = CARTESIAN_POINT('',(12.791796494744,0.922374756188,5.008473572519
    ));
#815 = CARTESIAN_POINT('',(12.792988377081,0.905804604927,5.046396487126
    ));
#816 = CARTESIAN_POINT('',(12.794305575912,0.887024709686,5.08362819345)
  );
#817 = CARTESIAN_POINT('',(12.795726849226,0.866025057374,5.1200006));
#818 = PCURVE('',#117,#819);
#819 = DEFINITIONAL_REPRESENTATION('',(#820),#826);
#820 = B_SPLINE_CURVE_WITH_KNOTS('',4,(#821,#822,#823,#824,#825),
  .UNSPECIFIED.,.F.,.F.,(5,5),(0.,1.),.PIECEWISE_BEZIER_KNOTS.);
#821 = CARTESIAN_POINT('',(-0.357570463133,-12.79074370707));
#822 = CARTESIAN_POINT('',(-0.398642441402,-12.79179649474));
#823 = CARTESIAN_POINT('',(-0.439966459859,-12.79298837708));
#824 = CARTESIAN_POINT('',(-0.481600214193,-12.79430557591));
#825 = CARTESIAN_POINT('',(-0.523599468419,-12.79572684922));
#826 = ( GEOMETRIC_REPRESENTATION_CONTEXT(2) 
PARAMETRIC_REPRESENTATION_CONTEXT() REPRESENTATION_CONTEXT('2D SPACE',''
  ) );
#827 = PCURVE('',#642,#828);
#828 = DEFINITIONAL_REPRESENTATION('',(#829),#835);
#829 = B_SPLINE_CURVE_WITH_KNOTS('',4,(#830,#831,#832,#833,#834),
  .UNSPECIFIED.,.F.,.F.,(5,5),(0.,1.),.PIECEWISE_BEZIER_KNOTS.);
#830 = CARTESIAN_POINT('',(7.310603144061E-02,-6.E-07));
#831 = CARTESIAN_POINT('',(7.198215873391E-02,3.847357251919E-02));
#832 = CARTESIAN_POINT('',(7.068680194768E-02,7.639648712556E-02));
#833 = CARTESIAN_POINT('',(6.921888936292E-02,0.11362819345));
#834 = CARTESIAN_POINT('',(6.757774364609E-02,0.1500006));
#835 = ( GEOMETRIC_REPRESENTATION_CONTEXT(2) 
PARAMETRIC_REPRESENTATION_CONTEXT() REPRESENTATION_CONTEXT('2D SPACE',''
  ) );
#836 = ORIENTED_EDGE('',*,*,#837,.F.);
#837 = EDGE_CURVE('',#229,#809,#838,.T.);
#838 = SURFACE_CURVE('',#839,(#843,#849),.PCURVE_S1.);
#839 = LINE('',#840,#841);
#840 = CARTESIAN_POINT('',(0.,0.93674969976,4.97));
#841 = VECTOR('',#842,1.);
#842 = DIRECTION('',(-1.,-0.,-0.));
#843 = PCURVE('',#117,#844);
#844 = DEFINITIONAL_REPRESENTATION('',(#845),#848);
#845 = B_SPLINE_CURVE_WITH_KNOTS('',1,(#846,#847),.UNSPECIFIED.,.F.,.F.,
  (2,2),(-15.84,6.E-07),.PIECEWISE_BEZIER_KNOTS.);
#846 = CARTESIAN_POINT('',(-0.357571103646,-15.84));
#847 = CARTESIAN_POINT('',(-0.357571103646,6.E-07));
#848 = ( GEOMETRIC_REPRESENTATION_CONTEXT(2) 
PARAMETRIC_REPRESENTATION_CONTEXT() REPRESENTATION_CONTEXT('2D SPACE',''
  ) );
#849 = PCURVE('',#611,#850);
#850 = DEFINITIONAL_REPRESENTATION('',(#851),#854);
#851 = B_SPLINE_CURVE_WITH_KNOTS('',1,(#852,#853),.UNSPECIFIED.,.F.,.F.,
  (2,2),(-15.84,6.E-07),.PIECEWISE_BEZIER_KNOTS.);
#852 = CARTESIAN_POINT('',(15.84,0.93674969976));
#853 = CARTESIAN_POINT('',(-6.E-07,0.93674969976));
#854 = ( GEOMETRIC_REPRESENTATION_CONTEXT(2) 
PARAMETRIC_REPRESENTATION_CONTEXT() REPRESENTATION_CONTEXT('2D SPACE',''
  ) );
#855 = ADVANCED_FACE('',(#856),#157,.T.);
#856 = FACE_BOUND('',#857,.F.);
#857 = EDGE_LOOP('',(#858,#859,#860,#861));
#858 = ORIENTED_EDGE('',*,*,#510,.T.);
#859 = ORIENTED_EDGE('',*,*,#140,.T.);
#860 = ORIENTED_EDGE('',*,*,#531,.F.);
#861 = ORIENTED_EDGE('',*,*,#862,.F.);
#862 = EDGE_CURVE('',#482,#532,#863,.T.);
#863 = SURFACE_CURVE('',#864,(#869,#876),.PCURVE_S1.);
#864 = CIRCLE('',#865,13.2);
#865 = AXIS2_PLACEMENT_3D('',#866,#867,#868);
#866 = CARTESIAN_POINT('',(0.,0.,4.47));
#867 = DIRECTION('',(0.,0.,1.));
#868 = DIRECTION('',(1.,0.,-0.));
#869 = PCURVE('',#157,#870);
#870 = DEFINITIONAL_REPRESENTATION('',(#871),#875);
#871 = CIRCLE('',#872,13.2);
#872 = AXIS2_PLACEMENT_2D('',#873,#874);
#873 = CARTESIAN_POINT('',(0.,0.));
#874 = DIRECTION('',(1.,-0.));
#875 = ( GEOMETRIC_REPRESENTATION_CONTEXT(2) 
PARAMETRIC_REPRESENTATION_CONTEXT() REPRESENTATION_CONTEXT('2D SPACE',''
  ) );
#876 = PCURVE('',#250,#877);
#877 = DEFINITIONAL_REPRESENTATION('',(#878),#882);
#878 = LINE('',#879,#880);
#879 = CARTESIAN_POINT('',(0.,0.));
#880 = VECTOR('',#881,1.);
#881 = DIRECTION('',(1.,0.));
#882 = ( GEOMETRIC_REPRESENTATION_CONTEXT(2) 
PARAMETRIC_REPRESENTATION_CONTEXT() REPRESENTATION_CONTEXT('2D SPACE',''
  ) );
#883 = ADVANCED_FACE('',(#884,#910),#66,.F.);
#884 = FACE_BOUND('',#885,.F.);
#885 = EDGE_LOOP('',(#886));
#886 = ORIENTED_EDGE('',*,*,#887,.T.);
#887 = EDGE_CURVE('',#888,#888,#890,.T.);
#888 = VERTEX_POINT('',#889);
#889 = CARTESIAN_POINT('',(14.215,0.,3.48));
#890 = SURFACE_CURVE('',#891,(#896,#903),.PCURVE_S1.);
#891 = CIRCLE('',#892,14.215);
#892 = AXIS2_PLACEMENT_3D('',#893,#894,#895);
#893 = CARTESIAN_POINT('',(0.,0.,3.48));
#894 = DIRECTION('',(0.,0.,1.));
#895 = DIRECTION('',(1.,0.,-0.));
#896 = PCURVE('',#66,#897);
#897 = DEFINITIONAL_REPRESENTATION('',(#898),#902);
#898 = CIRCLE('',#899,14.215);
#899 = AXIS2_PLACEMENT_2D('',#900,#901);
#900 = CARTESIAN_POINT('',(0.,0.));
#901 = DIRECTION('',(1.,0.));
#902 = ( GEOMETRIC_REPRESENTATION_CONTEXT(2) 
PARAMETRIC_REPRESENTATION_CONTEXT() REPRESENTATION_CONTEXT('2D SPACE',''
  ) );
#903 = PCURVE('',#326,#904);
#904 = DEFINITIONAL_REPRESENTATION('',(#905),#909);
#905 = LINE('',#906,#907);
#906 = CARTESIAN_POINT('',(-0.,3.69));
#907 = VECTOR('',#908,1.);
#908 = DIRECTION('',(-1.,0.));
#909 = ( GEOMETRIC_REPRESENTATION_CONTEXT(2) 
PARAMETRIC_REPRESENTATION_CONTEXT() REPRESENTATION_CONTEXT('2D SPACE',''
  ) );
#910 = FACE_BOUND('',#911,.F.);
#911 = EDGE_LOOP('',(#912));
#912 = ORIENTED_EDGE('',*,*,#51,.F.);
#913 = ADVANCED_FACE('',(#914),#250,.F.);
#914 = FACE_BOUND('',#915,.F.);
#915 = EDGE_LOOP('',(#916,#917,#918,#919,#941));
#916 = ORIENTED_EDGE('',*,*,#481,.F.);
#917 = ORIENTED_EDGE('',*,*,#862,.T.);
#918 = ORIENTED_EDGE('',*,*,#552,.F.);
#919 = ORIENTED_EDGE('',*,*,#920,.F.);
#920 = EDGE_CURVE('',#229,#553,#921,.T.);
#921 = SURFACE_CURVE('',#922,(#927,#934),.PCURVE_S1.);
#922 = CIRCLE('',#923,13.2);
#923 = AXIS2_PLACEMENT_3D('',#924,#925,#926);
#924 = CARTESIAN_POINT('',(0.,0.,4.97));
#925 = DIRECTION('',(0.,0.,1.));
#926 = DIRECTION('',(1.,0.,-0.));
#927 = PCURVE('',#250,#928);
#928 = DEFINITIONAL_REPRESENTATION('',(#929),#933);
#929 = LINE('',#930,#931);
#930 = CARTESIAN_POINT('',(0.,0.5));
#931 = VECTOR('',#932,1.);
#932 = DIRECTION('',(1.,0.));
#933 = ( GEOMETRIC_REPRESENTATION_CONTEXT(2) 
PARAMETRIC_REPRESENTATION_CONTEXT() REPRESENTATION_CONTEXT('2D SPACE',''
  ) );
#934 = PCURVE('',#611,#935);
#935 = DEFINITIONAL_REPRESENTATION('',(#936),#940);
#936 = CIRCLE('',#937,13.2);
#937 = AXIS2_PLACEMENT_2D('',#938,#939);
#938 = CARTESIAN_POINT('',(0.,0.));
#939 = DIRECTION('',(1.,0.));
#940 = ( GEOMETRIC_REPRESENTATION_CONTEXT(2) 
PARAMETRIC_REPRESENTATION_CONTEXT() REPRESENTATION_CONTEXT('2D SPACE',''
  ) );
#941 = ORIENTED_EDGE('',*,*,#226,.F.);
#942 = ADVANCED_FACE('',(#943),#611,.F.);
#943 = FACE_BOUND('',#944,.F.);
#944 = EDGE_LOOP('',(#945,#946,#947,#948));
#945 = ORIENTED_EDGE('',*,*,#837,.F.);
#946 = ORIENTED_EDGE('',*,*,#920,.T.);
#947 = ORIENTED_EDGE('',*,*,#596,.T.);
#948 = ORIENTED_EDGE('',*,*,#949,.F.);
#949 = EDGE_CURVE('',#809,#597,#950,.T.);
#950 = SURFACE_CURVE('',#951,(#956,#963),.PCURVE_S1.);
#951 = CIRCLE('',#952,12.825);
#952 = AXIS2_PLACEMENT_3D('',#953,#954,#955);
#953 = CARTESIAN_POINT('',(0.,0.,4.97));
#954 = DIRECTION('',(0.,0.,1.));
#955 = DIRECTION('',(1.,0.,-0.));
#956 = PCURVE('',#611,#957);
#957 = DEFINITIONAL_REPRESENTATION('',(#958),#962);
#958 = CIRCLE('',#959,12.825);
#959 = AXIS2_PLACEMENT_2D('',#960,#961);
#960 = CARTESIAN_POINT('',(0.,0.));
#961 = DIRECTION('',(1.,0.));
#962 = ( GEOMETRIC_REPRESENTATION_CONTEXT(2) 
PARAMETRIC_REPRESENTATION_CONTEXT() REPRESENTATION_CONTEXT('2D SPACE',''
  ) );
#963 = PCURVE('',#642,#964);
#964 = DEFINITIONAL_REPRESENTATION('',(#965),#969);
#965 = LINE('',#966,#967);
#966 = CARTESIAN_POINT('',(0.,0.));
#967 = VECTOR('',#968,1.);
#968 = DIRECTION('',(1.,0.));
#969 = ( GEOMETRIC_REPRESENTATION_CONTEXT(2) 
PARAMETRIC_REPRESENTATION_CONTEXT() REPRESENTATION_CONTEXT('2D SPACE',''
  ) );
#970 = ADVANCED_FACE('',(#971),#642,.F.);
#971 = FACE_BOUND('',#972,.F.);
#972 = EDGE_LOOP('',(#973,#974,#975,#976));
#973 = ORIENTED_EDGE('',*,*,#808,.F.);
#974 = ORIENTED_EDGE('',*,*,#949,.T.);
#975 = ORIENTED_EDGE('',*,*,#622,.F.);
#976 = ORIENTED_EDGE('',*,*,#977,.F.);
#977 = EDGE_CURVE('',#788,#623,#978,.T.);
#978 = SURFACE_CURVE('',#979,(#984,#991),.PCURVE_S1.);
#979 = CIRCLE('',#980,12.825);
#980 = AXIS2_PLACEMENT_3D('',#981,#982,#983);
#981 = CARTESIAN_POINT('',(0.,0.,5.12));
#982 = DIRECTION('',(0.,0.,1.));
#983 = DIRECTION('',(1.,0.,-0.));
#984 = PCURVE('',#642,#985);
#985 = DEFINITIONAL_REPRESENTATION('',(#986),#990);
#986 = LINE('',#987,#988);
#987 = CARTESIAN_POINT('',(0.,0.15));
#988 = VECTOR('',#989,1.);
#989 = DIRECTION('',(1.,0.));
#990 = ( GEOMETRIC_REPRESENTATION_CONTEXT(2) 
PARAMETRIC_REPRESENTATION_CONTEXT() REPRESENTATION_CONTEXT('2D SPACE',''
  ) );
#991 = PCURVE('',#671,#992);
#992 = DEFINITIONAL_REPRESENTATION('',(#993),#997);
#993 = CIRCLE('',#994,12.825);
#994 = AXIS2_PLACEMENT_2D('',#995,#996);
#995 = CARTESIAN_POINT('',(0.,0.));
#996 = DIRECTION('',(1.,-0.));
#997 = ( GEOMETRIC_REPRESENTATION_CONTEXT(2) 
PARAMETRIC_REPRESENTATION_CONTEXT() REPRESENTATION_CONTEXT('2D SPACE',''
  ) );
#998 = ADVANCED_FACE('',(#999),#671,.T.);
#999 = FACE_BOUND('',#1000,.F.);
#1000 = EDGE_LOOP('',(#1001,#1002,#1003,#1004));
#1001 = ORIENTED_EDGE('',*,*,#787,.T.);
#1002 = ORIENTED_EDGE('',*,*,#977,.T.);
#1003 = ORIENTED_EDGE('',*,*,#656,.F.);
#1004 = ORIENTED_EDGE('',*,*,#1005,.F.);
#1005 = EDGE_CURVE('',#738,#657,#1006,.T.);
#1006 = SURFACE_CURVE('',#1007,(#1012,#1019),.PCURVE_S1.);
#1007 = CIRCLE('',#1008,13.075);
#1008 = AXIS2_PLACEMENT_3D('',#1009,#1010,#1011);
#1009 = CARTESIAN_POINT('',(0.,0.,5.12));
#1010 = DIRECTION('',(0.,0.,1.));
#1011 = DIRECTION('',(1.,0.,-0.));
#1012 = PCURVE('',#671,#1013);
#1013 = DEFINITIONAL_REPRESENTATION('',(#1014),#1018);
#1014 = CIRCLE('',#1015,13.075);
#1015 = AXIS2_PLACEMENT_2D('',#1016,#1017);
#1016 = CARTESIAN_POINT('',(0.,0.));
#1017 = DIRECTION('',(1.,-0.));
#1018 = ( GEOMETRIC_REPRESENTATION_CONTEXT(2) 
PARAMETRIC_REPRESENTATION_CONTEXT() REPRESENTATION_CONTEXT('2D SPACE',''
  ) );
#1019 = PCURVE('',#716,#1020);
#1020 = DEFINITIONAL_REPRESENTATION('',(#1021),#1025);
#1021 = LINE('',#1022,#1023);
#1022 = CARTESIAN_POINT('',(0.,0.));
#1023 = VECTOR('',#1024,1.);
#1024 = DIRECTION('',(1.,0.));
#1025 = ( GEOMETRIC_REPRESENTATION_CONTEXT(2) 
PARAMETRIC_REPRESENTATION_CONTEXT() REPRESENTATION_CONTEXT('2D SPACE',''
  ) );
#1026 = ADVANCED_FACE('',(#1027),#716,.F.);
#1027 = FACE_BOUND('',#1028,.F.);
#1028 = EDGE_LOOP('',(#1029,#1030,#1031,#1032,#1055,#1082));
#1029 = ORIENTED_EDGE('',*,*,#737,.F.);
#1030 = ORIENTED_EDGE('',*,*,#1005,.T.);
#1031 = ORIENTED_EDGE('',*,*,#682,.F.);
#1032 = ORIENTED_EDGE('',*,*,#1033,.T.);
#1033 = EDGE_CURVE('',#683,#1034,#1036,.T.);
#1034 = VERTEX_POINT('',#1035);
#1035 = CARTESIAN_POINT('',(13.075,0.,7.17));
#1036 = SEAM_CURVE('',#1037,(#1041,#1048),.PCURVE_S1.);
#1037 = LINE('',#1038,#1039);
#1038 = CARTESIAN_POINT('',(13.075,0.,5.12));
#1039 = VECTOR('',#1040,1.);
#1040 = DIRECTION('',(0.,0.,1.));
#1041 = PCURVE('',#716,#1042);
#1042 = DEFINITIONAL_REPRESENTATION('',(#1043),#1047);
#1043 = LINE('',#1044,#1045);
#1044 = CARTESIAN_POINT('',(0.,0.));
#1045 = VECTOR('',#1046,1.);
#1046 = DIRECTION('',(0.,1.));
#1047 = ( GEOMETRIC_REPRESENTATION_CONTEXT(2) 
PARAMETRIC_REPRESENTATION_CONTEXT() REPRESENTATION_CONTEXT('2D SPACE',''
  ) );
#1048 = PCURVE('',#716,#1049);
#1049 = DEFINITIONAL_REPRESENTATION('',(#1050),#1054);
#1050 = LINE('',#1051,#1052);
#1051 = CARTESIAN_POINT('',(6.28318530718,0.));
#1052 = VECTOR('',#1053,1.);
#1053 = DIRECTION('',(0.,1.));
#1054 = ( GEOMETRIC_REPRESENTATION_CONTEXT(2) 
PARAMETRIC_REPRESENTATION_CONTEXT() REPRESENTATION_CONTEXT('2D SPACE',''
  ) );
#1055 = ORIENTED_EDGE('',*,*,#1056,.F.);
#1056 = EDGE_CURVE('',#1034,#1034,#1057,.T.);
#1057 = SURFACE_CURVE('',#1058,(#1063,#1070),.PCURVE_S1.);
#1058 = CIRCLE('',#1059,13.075);
#1059 = AXIS2_PLACEMENT_3D('',#1060,#1061,#1062);
#1060 = CARTESIAN_POINT('',(0.,0.,7.17));
#1061 = DIRECTION('',(0.,0.,1.));
#1062 = DIRECTION('',(1.,0.,-0.));
#1063 = PCURVE('',#716,#1064);
#1064 = DEFINITIONAL_REPRESENTATION('',(#1065),#1069);
#1065 = LINE('',#1066,#1067);
#1066 = CARTESIAN_POINT('',(0.,2.05));
#1067 = VECTOR('',#1068,1.);
#1068 = DIRECTION('',(1.,0.));
#1069 = ( GEOMETRIC_REPRESENTATION_CONTEXT(2) 
PARAMETRIC_REPRESENTATION_CONTEXT() REPRESENTATION_CONTEXT('2D SPACE',''
  ) );
#1070 = PCURVE('',#1071,#1076);
#1071 = PLANE('',#1072);
#1072 = AXIS2_PLACEMENT_3D('',#1073,#1074,#1075);
#1073 = CARTESIAN_POINT('',(0.,0.,7.17));
#1074 = DIRECTION('',(0.,0.,1.));
#1075 = DIRECTION('',(1.,0.,-0.));
#1076 = DEFINITIONAL_REPRESENTATION('',(#1077),#1081);
#1077 = CIRCLE('',#1078,13.075);
#1078 = AXIS2_PLACEMENT_2D('',#1079,#1080);
#1079 = CARTESIAN_POINT('',(0.,0.));
#1080 = DIRECTION('',(1.,-0.));
#1081 = ( GEOMETRIC_REPRESENTATION_CONTEXT(2) 
PARAMETRIC_REPRESENTATION_CONTEXT() REPRESENTATION_CONTEXT('2D SPACE',''
  ) );
#1082 = ORIENTED_EDGE('',*,*,#1033,.F.);
#1083 = ADVANCED_FACE('',(#1084),#326,.T.);
#1084 = FACE_BOUND('',#1085,.F.);
#1085 = EDGE_LOOP('',(#1086,#1109,#1131,#1132,#1133,#1154,#1155,#1156,
    #1157));
#1086 = ORIENTED_EDGE('',*,*,#1087,.F.);
#1087 = EDGE_CURVE('',#1088,#289,#1090,.T.);
#1088 = VERTEX_POINT('',#1089);
#1089 = CARTESIAN_POINT('',(14.215,0.,7.17));
#1090 = SEAM_CURVE('',#1091,(#1095,#1102),.PCURVE_S1.);
#1091 = LINE('',#1092,#1093);
#1092 = CARTESIAN_POINT('',(14.215,0.,7.17));
#1093 = VECTOR('',#1094,1.);
#1094 = DIRECTION('',(0.,0.,-1.));
#1095 = PCURVE('',#326,#1096);
#1096 = DEFINITIONAL_REPRESENTATION('',(#1097),#1101);
#1097 = LINE('',#1098,#1099);
#1098 = CARTESIAN_POINT('',(-0.,0.));
#1099 = VECTOR('',#1100,1.);
#1100 = DIRECTION('',(-0.,1.));
#1101 = ( GEOMETRIC_REPRESENTATION_CONTEXT(2) 
PARAMETRIC_REPRESENTATION_CONTEXT() REPRESENTATION_CONTEXT('2D SPACE',''
  ) );
#1102 = PCURVE('',#326,#1103);
#1103 = DEFINITIONAL_REPRESENTATION('',(#1104),#1108);
#1104 = LINE('',#1105,#1106);
#1105 = CARTESIAN_POINT('',(-6.28318530718,0.));
#1106 = VECTOR('',#1107,1.);
#1107 = DIRECTION('',(-0.,1.));
#1108 = ( GEOMETRIC_REPRESENTATION_CONTEXT(2) 
PARAMETRIC_REPRESENTATION_CONTEXT() REPRESENTATION_CONTEXT('2D SPACE',''
  ) );
#1109 = ORIENTED_EDGE('',*,*,#1110,.T.);
#1110 = EDGE_CURVE('',#1088,#1088,#1111,.T.);
#1111 = SURFACE_CURVE('',#1112,(#1117,#1124),.PCURVE_S1.);
#1112 = CIRCLE('',#1113,14.215);
#1113 = AXIS2_PLACEMENT_3D('',#1114,#1115,#1116);
#1114 = CARTESIAN_POINT('',(0.,0.,7.17));
#1115 = DIRECTION('',(0.,0.,1.));
#1116 = DIRECTION('',(1.,0.,-0.));
#1117 = PCURVE('',#326,#1118);
#1118 = DEFINITIONAL_REPRESENTATION('',(#1119),#1123);
#1119 = LINE('',#1120,#1121);
#1120 = CARTESIAN_POINT('',(-0.,0.));
#1121 = VECTOR('',#1122,1.);
#1122 = DIRECTION('',(-1.,0.));
#1123 = ( GEOMETRIC_REPRESENTATION_CONTEXT(2) 
PARAMETRIC_REPRESENTATION_CONTEXT() REPRESENTATION_CONTEXT('2D SPACE',''
  ) );
#1124 = PCURVE('',#1071,#1125);
#1125 = DEFINITIONAL_REPRESENTATION('',(#1126),#1130);
#1126 = CIRCLE('',#1127,14.215);
#1127 = AXIS2_PLACEMENT_2D('',#1128,#1129);
#1128 = CARTESIAN_POINT('',(0.,0.));
#1129 = DIRECTION('',(1.,-0.));
#1130 = ( GEOMETRIC_REPRESENTATION_CONTEXT(2) 
PARAMETRIC_REPRESENTATION_CONTEXT() REPRESENTATION_CONTEXT('2D SPACE',''
  ) );
#1131 = ORIENTED_EDGE('',*,*,#1087,.T.);
#1132 = ORIENTED_EDGE('',*,*,#349,.T.);
#1133 = ORIENTED_EDGE('',*,*,#1134,.T.);
#1134 = EDGE_CURVE('',#350,#888,#1135,.T.);
#1135 = SEAM_CURVE('',#1136,(#1140,#1147),.PCURVE_S1.);
#1136 = LINE('',#1137,#1138);
#1137 = CARTESIAN_POINT('',(14.215,0.,7.17));
#1138 = VECTOR('',#1139,1.);
#1139 = DIRECTION('',(0.,0.,-1.));
#1140 = PCURVE('',#326,#1141);
#1141 = DEFINITIONAL_REPRESENTATION('',(#1142),#1146);
#1142 = LINE('',#1143,#1144);
#1143 = CARTESIAN_POINT('',(-0.,0.));
#1144 = VECTOR('',#1145,1.);
#1145 = DIRECTION('',(-0.,1.));
#1146 = ( GEOMETRIC_REPRESENTATION_CONTEXT(2) 
PARAMETRIC_REPRESENTATION_CONTEXT() REPRESENTATION_CONTEXT('2D SPACE',''
  ) );
#1147 = PCURVE('',#326,#1148);
#1148 = DEFINITIONAL_REPRESENTATION('',(#1149),#1153);
#1149 = LINE('',#1150,#1151);
#1150 = CARTESIAN_POINT('',(-6.28318530718,0.));
#1151 = VECTOR('',#1152,1.);
#1152 = DIRECTION('',(-0.,1.));
#1153 = ( GEOMETRIC_REPRESENTATION_CONTEXT(2) 
PARAMETRIC_REPRESENTATION_CONTEXT() REPRESENTATION_CONTEXT('2D SPACE',''
  ) );
#1154 = ORIENTED_EDGE('',*,*,#887,.F.);
#1155 = ORIENTED_EDGE('',*,*,#1134,.F.);
#1156 = ORIENTED_EDGE('',*,*,#441,.T.);
#1157 = ORIENTED_EDGE('',*,*,#288,.T.);
#1158 = ADVANCED_FACE('',(#1159,#1162),#1071,.T.);
#1159 = FACE_BOUND('',#1160,.F.);
#1160 = EDGE_LOOP('',(#1161));
#1161 = ORIENTED_EDGE('',*,*,#1056,.T.);
#1162 = FACE_BOUND('',#1163,.F.);
#1163 = EDGE_LOOP('',(#1164));
#1164 = ORIENTED_EDGE('',*,*,#1110,.F.);
#1165 = ( GEOMETRIC_REPRESENTATION_CONTEXT(3) 
GLOBAL_UNCERTAINTY_ASSIGNED_CONTEXT((#1169)) 
GLOBAL_UNIT_ASSIGNED_CONTEXT((#1166,#1167,#1168)) REPRESENTATION_CONTEXT
('Context #1','3D Context with UNIT and UNCERTAINTY') );
#1166 = ( LENGTH_UNIT() NAMED_UNIT(*) SI_UNIT(.MILLI.,.METRE.) );
#1167 = ( NAMED_UNIT(*) PLANE_ANGLE_UNIT() SI_UNIT($,.RADIAN.) );
#1168 = ( NAMED_UNIT(*) SI_UNIT($,.STERADIAN.) SOLID_ANGLE_UNIT() );
#1169 = UNCERTAINTY_MEASURE_WITH_UNIT(LENGTH_MEASURE(1.E-07),#1166,
  'distance_accuracy_value','confusion accuracy');
#1170 = PRODUCT_RELATED_PRODUCT_CATEGORY('part',$,(#7));
ENDSEC;
END-ISO-10303-21;
